<svg width="68" height="12" viewBox="0 0 68 12" fill="none" xmlns="http://www.w3.org/2000/svg">
<path d="M5.99881 0L7.41509 4.58351H12L8.29067 7.41649L9.70814 12L5.99881 9.16701L2.29186 12L3.70933 7.41649L0 4.58351H4.58372L5.99881 0Z" fill="white"/>
<path d="M19.9988 0L21.4151 4.58351H26L22.2907 7.41649L23.7081 12L19.9988 9.16701L16.2919 12L17.7093 7.41649L14 4.58351H18.5837L19.9988 0Z" fill="white"/>
<path d="M33.9988 0L35.4151 4.58351H40L36.2907 7.41649L37.7081 12L33.9988 9.16701L30.2919 12L31.7093 7.41649L28 4.58351H32.5837L33.9988 0Z" fill="white"/>
<path d="M47.9988 0L49.4151 4.58351H54L50.2907 7.41649L51.7081 12L47.9988 9.16701L44.2919 12L45.7093 7.41649L42 4.58351H46.5837L47.9988 0Z" fill="white"/>
<path d="M61.9988 0L63.4151 4.58351H68L64.2907 7.41649L65.7081 12L61.9988 9.16701L58.2919 12L59.7093 7.41649L56 4.58351H60.5837L61.9988 0Z" fill="white"/>
</svg>
