<svg width="1218" height="910" viewBox="0 0 1218 910" fill="none" xmlns="http://www.w3.org/2000/svg">
<mask id="mask0_719_3157" style="mask-type:alpha" maskUnits="userSpaceOnUse" x="0" y="0" width="1218" height="910">
<rect width="1218" height="910" fill="#D9D9D9"/>
</mask>
<g mask="url(#mask0_719_3157)">
<path opacity="0.4" d="M413.721 -118L1166.27 634.552H936.831L299 -3.27898L413.721 -118Z" fill="url(#paint0_linear_719_3157)"/>
<path opacity="0.4" d="M413.721 1386.33L1166.27 633.779H936.831L299 1271.61L413.721 1386.33Z" fill="url(#paint1_linear_719_3157)"/>
<path opacity="0.4" d="M465.713 -481L1218.26 271.552H988.823L350.992 -366.279L465.713 -481Z" fill="url(#paint2_linear_719_3157)"/>
<path opacity="0.4" d="M465.713 1023.33L1218.26 270.779H988.823L350.992 908.611L465.713 1023.33Z" fill="url(#paint3_linear_719_3157)"/>
<path opacity="0.4" d="M-52.2789 -292L700.273 460.552H470.831L-167 -177.279L-52.2789 -292Z" fill="url(#paint4_linear_719_3157)"/>
<path opacity="0.4" d="M-52.2789 1212.33L700.273 459.779H470.831L-167 1097.61L-52.2789 1212.33Z" fill="url(#paint5_linear_719_3157)"/>
</g>
<defs>
<linearGradient id="paint0_linear_719_3157" x1="1071.99" y1="605.19" x2="398.599" y2="28.2666" gradientUnits="userSpaceOnUse">
<stop stop-color="#638CE0"/>
<stop offset="1" stop-color="#0054FF"/>
</linearGradient>
<linearGradient id="paint1_linear_719_3157" x1="1012.79" y1="674.095" x2="772.565" y2="1012.04" gradientUnits="userSpaceOnUse">
<stop stop-color="#0054FF"/>
<stop offset="0.700232" stop-color="#638CE0"/>
</linearGradient>
<linearGradient id="paint2_linear_719_3157" x1="1123.98" y1="242.19" x2="450.591" y2="-334.733" gradientUnits="userSpaceOnUse">
<stop stop-color="#638CE0"/>
<stop offset="1" stop-color="#0054FF"/>
</linearGradient>
<linearGradient id="paint3_linear_719_3157" x1="1064.79" y1="311.095" x2="824.557" y2="649.042" gradientUnits="userSpaceOnUse">
<stop stop-color="#0054FF"/>
<stop offset="0.700232" stop-color="#638CE0"/>
</linearGradient>
<linearGradient id="paint4_linear_719_3157" x1="605.989" y1="431.19" x2="-67.4009" y2="-145.733" gradientUnits="userSpaceOnUse">
<stop stop-color="#638CE0"/>
<stop offset="1" stop-color="#0054FF"/>
</linearGradient>
<linearGradient id="paint5_linear_719_3157" x1="546.793" y1="500.095" x2="306.566" y2="838.042" gradientUnits="userSpaceOnUse">
<stop stop-color="#0054FF"/>
<stop offset="0.700232" stop-color="#638CE0"/>
</linearGradient>
</defs>
</svg>
