<svg xmlns:xlink="http://www.w3.org/1999/xlink" xmlns="http://www.w3.org/2000/svg" width="15" height="15" viewBox="0 0 15 15" fill="none">
  <path d="M7.5 2.34375C7.56216 2.34375 7.62177 2.31906 7.66573 2.2751C7.70968 2.23115 7.73438 2.17154 7.73438 2.10938V1.17188C7.73438 1.10971 7.70968 1.0501 7.66573 1.00615C7.62177 0.962193 7.56216 0.9375 7.5 0.9375C7.43784 0.9375 7.37823 0.962193 7.33427 1.00615C7.29032 1.0501 7.26562 1.10971 7.26562 1.17188V2.10938C7.26562 2.17154 7.29032 2.23115 7.33427 2.2751C7.37823 2.31906 7.43784 2.34375 7.5 2.34375Z" fill="white"/>
  <path d="M4.01966 3.648C4.04128 3.67039 4.06714 3.68824 4.09574 3.70053C4.12433 3.71281 4.15509 3.71928 4.18621 3.71955C4.21733 3.71982 4.24819 3.71389 4.27699 3.7021C4.3058 3.69032 4.33197 3.67291 4.35397 3.65091C4.37598 3.6289 4.39338 3.60273 4.40517 3.57393C4.41695 3.54513 4.42288 3.51426 4.42261 3.48314C4.42234 3.45202 4.41587 3.42127 4.40359 3.39267C4.39131 3.36408 4.37345 3.33822 4.35107 3.3166L3.68811 2.65364C3.66649 2.63126 3.64063 2.6134 3.61204 2.60112C3.58344 2.58884 3.55269 2.58237 3.52157 2.5821C3.49045 2.58183 3.45959 2.58776 3.43078 2.59955C3.40198 2.61133 3.37581 2.62873 3.3538 2.65074C3.3318 2.67275 3.31439 2.69891 3.30261 2.72772C3.29082 2.75652 3.28489 2.78738 3.28517 2.8185C3.28544 2.84962 3.2919 2.88038 3.30418 2.90897C3.31647 2.93757 3.33432 2.96343 3.35671 2.98505L4.01966 3.648Z" fill="white"/>
  <path d="M2.8125 6.5625H1.875C1.81284 6.5625 1.75323 6.58719 1.70927 6.63115C1.66532 6.6751 1.64062 6.73471 1.64062 6.79688C1.64062 6.85904 1.66532 6.91865 1.70927 6.9626C1.75323 7.00656 1.81284 7.03125 1.875 7.03125H2.8125C2.87466 7.03125 2.93427 7.00656 2.97823 6.9626C3.02218 6.91865 3.04688 6.85904 3.04688 6.79688C3.04688 6.73471 3.02218 6.6751 2.97823 6.63115C2.93427 6.58719 2.87466 6.5625 2.8125 6.5625Z" fill="white"/>
  <path d="M4.01966 9.94574L3.35671 10.6087C3.33432 10.6303 3.31647 10.6562 3.30418 10.6848C3.2919 10.7134 3.28544 10.7441 3.28517 10.7752C3.28489 10.8064 3.29082 10.8372 3.30261 10.866C3.31439 10.8948 3.3318 10.921 3.3538 10.943C3.37581 10.965 3.40198 10.9824 3.43078 10.9942C3.45959 11.006 3.49045 11.0119 3.52157 11.0116C3.55269 11.0114 3.58344 11.0049 3.61204 10.9926C3.64063 10.9803 3.66649 10.9625 3.68811 10.9401L4.35107 10.2771C4.39376 10.2329 4.41738 10.1737 4.41685 10.1123C4.41632 10.0508 4.39167 9.99205 4.34821 9.94859C4.30476 9.90514 4.24597 9.88049 4.18452 9.87995C4.12307 9.87942 4.06386 9.90304 4.01966 9.94574Z" fill="white"/>
  <path d="M11.3119 2.65364L10.6489 3.3166C10.6266 3.33822 10.6087 3.36408 10.5964 3.39267C10.5841 3.42127 10.5777 3.45202 10.5774 3.48314C10.5771 3.51426 10.5831 3.54513 10.5948 3.57393C10.6066 3.60273 10.624 3.6289 10.646 3.65091C10.668 3.67291 10.6942 3.69032 10.723 3.7021C10.7518 3.71389 10.7827 3.71982 10.8138 3.71955C10.8449 3.71928 10.8757 3.71281 10.9043 3.70053C10.9329 3.68824 10.9587 3.67039 10.9804 3.648L11.6433 2.98505C11.6657 2.96343 11.6835 2.93757 11.6958 2.90897C11.7081 2.88038 11.7146 2.84962 11.7148 2.8185C11.7151 2.78738 11.7092 2.75652 11.6974 2.72772C11.6856 2.69891 11.6682 2.67275 11.6462 2.65074C11.6242 2.62873 11.598 2.61133 11.5692 2.59955C11.5404 2.58776 11.5096 2.58183 11.4784 2.5821C11.4473 2.58237 11.4166 2.58884 11.388 2.60112C11.3594 2.6134 11.3335 2.63126 11.3119 2.65364Z" fill="white"/>
  <path d="M10.9802 9.94574C10.936 9.90304 10.8768 9.87942 10.8153 9.87995C10.7539 9.88049 10.6951 9.90514 10.6517 9.94859C10.6082 9.99205 10.5836 10.0508 10.583 10.1123C10.5825 10.1737 10.6061 10.2329 10.6488 10.2771L11.3118 10.9401C11.356 10.9828 11.4152 11.0064 11.4766 11.0059C11.5381 11.0053 11.5968 10.9807 11.6403 10.9372C11.6838 10.8938 11.7084 10.835 11.7089 10.7735C11.7095 10.7121 11.6859 10.6529 11.6432 10.6087L10.9802 9.94574Z" fill="white"/>
  <path d="M13.125 6.5625H12.1875C12.1253 6.5625 12.0657 6.58719 12.0218 6.63115C11.9778 6.6751 11.9531 6.73471 11.9531 6.79688C11.9531 6.85904 11.9778 6.91865 12.0218 6.9626C12.0657 7.00656 12.1253 7.03125 12.1875 7.03125H13.125C13.1872 7.03125 13.2468 7.00656 13.2907 6.9626C13.3347 6.91865 13.3594 6.85904 13.3594 6.79688C13.3594 6.73471 13.3347 6.6751 13.2907 6.63115C13.2468 6.58719 13.1872 6.5625 13.125 6.5625Z" fill="white"/>
  <path d="M5.625 12.6562C5.62512 12.7805 5.67455 12.8997 5.76243 12.9876C5.85031 13.0754 5.96947 13.1249 6.09375 13.125H6.5625V13.5938C6.56262 13.718 6.61205 13.8372 6.69993 13.9251C6.78781 14.0129 6.90697 14.0624 7.03125 14.0625H7.96875C8.09303 14.0624 8.21219 14.0129 8.30007 13.9251C8.38795 13.8372 8.43738 13.718 8.4375 13.5938V13.125H8.90625C9.03053 13.1249 9.14969 13.0754 9.23757 12.9876C9.32545 12.8997 9.37488 12.7805 9.375 12.6562V12.1875H5.625V12.6562Z" fill="white"/>
  <path d="M5.625 11.25H9.375V11.7188H5.625V11.25Z" fill="white"/>
  <path d="M10.1565 3.82737C9.73835 3.45032 9.24444 3.16697 8.70788 2.99629C8.17131 2.8256 7.60447 2.77153 7.04531 2.83767C6.20134 2.93407 5.4103 3.29782 4.78779 3.8758C4.16527 4.45378 3.74389 5.21568 3.58522 6.0502C3.42655 6.88471 3.53891 7.74809 3.90587 8.5142C4.27284 9.28031 4.87518 9.909 5.62489 10.3084V10.7813H7.26551V9.70646L6.63106 9.07198C6.58836 9.02778 6.56474 8.96857 6.56527 8.90712C6.56581 8.84567 6.59046 8.78688 6.63391 8.74343C6.67737 8.69997 6.73615 8.67532 6.7976 8.67479C6.85906 8.67426 6.91826 8.69788 6.96246 8.74057L7.49989 9.27797L8.03731 8.74057C8.08151 8.69788 8.14071 8.67426 8.20217 8.67479C8.26362 8.67532 8.3224 8.69997 8.36586 8.74343C8.40931 8.78688 8.43396 8.84567 8.4345 8.90712C8.43503 8.96857 8.41141 9.02778 8.36871 9.07198L7.73426 9.70646V10.7813H9.37489V10.3085C9.94056 10.0072 10.4251 9.57382 10.7874 9.04512C11.1497 8.51641 11.3789 7.90805 11.4556 7.27175C11.5324 6.63546 11.4543 5.99004 11.2282 5.39037C11.002 4.79069 10.6344 4.2545 10.1565 3.82737Z" fill="white"/>
</svg>