<svg width="13" height="13" viewBox="0 0 13 13" fill="none" xmlns="http://www.w3.org/2000/svg">
<g clip-path="url(#clip0_693_1941)">
<path d="M12.9999 5.41666H11.3749C11.3737 4.4114 10.9739 3.44764 10.263 2.73681C9.55222 2.02599 8.58846 1.62614 7.5832 1.62499V-7.62939e-06C9.01931 0.00156949 10.3961 0.572759 11.4116 1.58824C12.4271 2.60372 12.9983 3.98055 12.9999 5.41666ZM7.5832 2.70833V4.33333C7.87052 4.33333 8.14607 4.44746 8.34923 4.65063C8.5524 4.85379 8.66653 5.12934 8.66653 5.41666H10.2915C10.2907 4.69863 10.0051 4.01025 9.49733 3.50253C8.98961 2.9948 8.30123 2.70919 7.5832 2.70833ZM10.9767 12.044L12.9511 10.0696L9.35391 6.47183L7.7457 8.08328C6.49841 7.504 5.49775 6.50008 4.92253 5.25091L6.52803 3.64595L2.93028 0.0487424L0.95645 2.02258C0.649871 2.3302 0.407442 2.69565 0.243231 3.09771C0.0790202 3.49978 -0.00370149 3.93045 -0.000133445 4.36474C-0.000133445 8.2382 4.76166 13 8.63512 13C9.06928 13.0036 9.49983 12.9209 9.90179 12.7568C10.3038 12.5927 10.6691 12.3504 10.9767 12.044ZM4.22974 3.64595L3.00124 4.87499L3.20112 5.37278C3.58042 6.38678 4.17336 7.30734 4.93973 8.07203C5.70609 8.83671 6.62796 9.42763 7.64278 9.8047L8.13462 9.99212L9.35608 8.77012L10.6561 10.0701L9.83057 10.8962C9.67354 11.0509 9.48735 11.173 9.28279 11.2553C9.07823 11.3376 8.85938 11.3785 8.63891 11.3755C5.93058 11.375 1.62487 7.54758 1.62487 4.36474C1.62214 4.14425 1.66315 3.92541 1.74552 3.72086C1.8279 3.51632 1.95001 3.33014 2.10478 3.17308L2.93028 2.34649L4.22974 3.64595Z" fill="#0054FF"/>
</g>
<defs>
<clipPath id="clip0_693_1941">
<rect width="13" height="13" fill="white"/>
</clipPath>
</defs>
</svg>
