<svg xmlns:xlink="http://www.w3.org/1999/xlink" xmlns="http://www.w3.org/2000/svg" width="112" height="97" viewBox="0 0 112 97" fill="none">
  <g clip-path="url(#clip0_138_226)">
    <path d="M104.219 96.4379H8.25255C7.27638 96.4379 6.48413 95.6456 6.48413 94.6695V1.76842C6.48413 0.792253 7.27638 0 8.25255 0H59.8904C60.8666 0 61.6589 0.792253 61.6589 1.76842V52.3453H104.219C105.195 52.3453 105.987 53.1375 105.987 54.1137V94.6695C105.987 95.6456 105.195 96.4379 104.219 96.4379ZM10.021 92.9011H102.45V55.8821H59.8904C58.9143 55.8821 58.122 55.0899 58.122 54.1137V3.53684H10.021V92.9011Z" fill="white"/>
    <path d="M110.232 96.4378H1.76842C0.792253 96.4378 0 95.6456 0 94.6694C0 93.6933 0.792253 92.901 1.76842 92.901H110.232C111.208 92.901 112 93.6933 112 94.6694C112 95.6456 111.208 96.4378 110.232 96.4378Z" fill="white"/>
    <path d="M33.6001 13.44H29.5917C28.6155 13.44 27.8232 12.6478 27.8232 11.6716C27.8232 10.6955 28.6155 9.9032 29.5917 9.9032H33.6001C34.5763 9.9032 35.3685 10.6955 35.3685 11.6716C35.3685 12.6478 34.5763 13.44 33.6001 13.44Z" fill="white"/>
    <path d="M20.3957 13.44H16.3873C15.4111 13.44 14.6189 12.6478 14.6189 11.6716C14.6189 10.6955 15.4111 9.9032 16.3873 9.9032H20.3957C21.3719 9.9032 22.1642 10.6955 22.1642 11.6716C22.1642 12.6478 21.3719 13.44 20.3957 13.44Z" fill="white"/>
    <path d="M59.7726 13.44H42.7958C41.8196 13.44 41.0273 12.6478 41.0273 11.6716C41.0273 10.6955 41.8196 9.9032 42.7958 9.9032H59.7726C60.7488 9.9032 61.541 10.6955 61.541 11.6716C61.541 12.6478 60.7488 13.44 59.7726 13.44Z" fill="white"/>
    <path d="M33.6001 24.0505H29.5917C28.6155 24.0505 27.8232 23.2583 27.8232 22.2821C27.8232 21.3059 28.6155 20.5137 29.5917 20.5137H33.6001C34.5763 20.5137 35.3685 21.3059 35.3685 22.2821C35.3685 23.2583 34.5763 24.0505 33.6001 24.0505Z" fill="white"/>
    <path d="M20.3957 24.0505H16.3873C15.4111 24.0505 14.6189 23.2583 14.6189 22.2821C14.6189 21.3059 15.4111 20.5137 16.3873 20.5137H20.3957C21.3719 20.5137 22.1642 21.3059 22.1642 22.2821C22.1642 23.2583 21.3719 24.0505 20.3957 24.0505Z" fill="white"/>
    <path d="M59.7726 24.0505H42.7958C41.8196 24.0505 41.0273 23.2583 41.0273 22.2821C41.0273 21.3059 41.8196 20.5137 42.7958 20.5137H59.7726C60.7488 20.5137 61.541 21.3059 61.541 22.2821C61.541 23.2583 60.7488 24.0505 59.7726 24.0505Z" fill="white"/>
    <path d="M33.6001 34.6611H29.5917C28.6155 34.6611 27.8232 33.8689 27.8232 32.8927C27.8232 31.9165 28.6155 31.1243 29.5917 31.1243H33.6001C34.5763 31.1243 35.3685 31.9165 35.3685 32.8927C35.3685 33.8689 34.5763 34.6611 33.6001 34.6611Z" fill="white"/>
    <path d="M20.3957 34.6611H16.3873C15.4111 34.6611 14.6189 33.8689 14.6189 32.8927C14.6189 31.9165 15.4111 31.1243 16.3873 31.1243H20.3957C21.3719 31.1243 22.1642 31.9165 22.1642 32.8927C22.1642 33.8689 21.3719 34.6611 20.3957 34.6611Z" fill="white"/>
    <path d="M59.7726 34.6611H42.7958C41.8196 34.6611 41.0273 33.8689 41.0273 32.8927C41.0273 31.9165 41.8196 31.1243 42.7958 31.1243H59.7726C60.7488 31.1243 61.541 31.9165 61.541 32.8927C61.541 33.8689 60.7488 34.6611 59.7726 34.6611Z" fill="white"/>
    <path d="M33.6001 45.2716H29.5917C28.6155 45.2716 27.8232 44.4793 27.8232 43.5032C27.8232 42.527 28.6155 41.7347 29.5917 41.7347H33.6001C34.5763 41.7347 35.3685 42.527 35.3685 43.5032C35.3685 44.4793 34.5763 45.2716 33.6001 45.2716Z" fill="white"/>
    <path d="M20.3957 45.2716H16.3873C15.4111 45.2716 14.6189 44.4793 14.6189 43.5032C14.6189 42.527 15.4111 41.7347 16.3873 41.7347H20.3957C21.3719 41.7347 22.1642 42.527 22.1642 43.5032C22.1642 44.4793 21.3719 45.2716 20.3957 45.2716Z" fill="white"/>
    <path d="M59.7726 45.2716H42.7958C41.8196 45.2716 41.0273 44.4793 41.0273 43.5032C41.0273 42.527 41.8196 41.7347 42.7958 41.7347H59.7726C60.7488 41.7347 61.541 42.527 61.541 43.5032C61.541 44.4793 60.7488 45.2716 59.7726 45.2716Z" fill="white"/>
    <path d="M33.6001 55.8821H29.5917C28.6155 55.8821 27.8232 55.0898 27.8232 54.1136C27.8232 53.1375 28.6155 52.3452 29.5917 52.3452H33.6001C34.5763 52.3452 35.3685 53.1375 35.3685 54.1136C35.3685 55.0898 34.5763 55.8821 33.6001 55.8821Z" fill="white"/>
    <path d="M20.3957 55.8821H16.3873C15.4111 55.8821 14.6189 55.0898 14.6189 54.1136C14.6189 53.1375 15.4111 52.3452 16.3873 52.3452H20.3957C21.3719 52.3452 22.1642 53.1375 22.1642 54.1136C22.1642 55.0898 21.3719 55.8821 20.3957 55.8821Z" fill="white"/>
    <path d="M60.0084 55.8821H42.7958C41.8196 55.8821 41.0273 55.0898 41.0273 54.1136C41.0273 53.1375 41.8196 52.3452 42.7958 52.3452H60.0084C60.9846 52.3452 61.7768 53.1375 61.7768 54.1136C61.7768 55.0898 60.9846 55.8821 60.0084 55.8821Z" fill="white"/>
    <path d="M33.6001 66.9642H29.5917C28.6155 66.9642 27.8232 66.172 27.8232 65.1958C27.8232 64.2196 28.6155 63.4274 29.5917 63.4274H33.6001C34.5763 63.4274 35.3685 64.2196 35.3685 65.1958C35.3685 66.172 34.5763 66.9642 33.6001 66.9642Z" fill="white"/>
    <path d="M20.3957 66.9642H16.3873C15.4111 66.9642 14.6189 66.172 14.6189 65.1958C14.6189 64.2196 15.4111 63.4274 16.3873 63.4274H20.3957C21.3719 63.4274 22.1642 64.2196 22.1642 65.1958C22.1642 66.172 21.3719 66.9642 20.3957 66.9642Z" fill="white"/>
    <path d="M60.0084 66.9642H42.7958C41.8196 66.9642 41.0273 66.172 41.0273 65.1958C41.0273 64.2196 41.8196 63.4274 42.7958 63.4274H60.0084C60.9846 63.4274 61.7768 64.2196 61.7768 65.1958C61.7768 66.172 60.9846 66.9642 60.0084 66.9642Z" fill="white"/>
    <path d="M77.6926 66.9642H68.0253C67.0491 66.9642 66.2568 66.172 66.2568 65.1958C66.2568 64.2196 67.0491 63.4274 68.0253 63.4274H77.6926C78.6688 63.4274 79.461 64.2196 79.461 65.1958C79.461 66.172 78.6688 66.9642 77.6926 66.9642Z" fill="white"/>
    <path d="M96.0842 66.9642H86.4169C85.4407 66.9642 84.6484 66.172 84.6484 65.1958C84.6484 64.2196 85.4407 63.4274 86.4169 63.4274H96.0842C97.0604 63.4274 97.8526 64.2196 97.8526 65.1958C97.8526 66.172 97.0604 66.9642 96.0842 66.9642Z" fill="white"/>
    <path d="M60.0083 77.339H53.8778C52.9016 77.339 52.1094 76.5467 52.1094 75.5705C52.1094 74.5944 52.9016 73.8021 53.8778 73.8021H60.0083C60.9845 73.8021 61.7767 74.5944 61.7767 75.5705C61.7767 76.5467 60.9845 77.339 60.0083 77.339Z" fill="white"/>
    <path d="M77.6926 77.339H68.0253C67.0491 77.339 66.2568 76.5467 66.2568 75.5705C66.2568 74.5944 67.0491 73.8021 68.0253 73.8021H77.6926C78.6688 73.8021 79.461 74.5944 79.461 75.5705C79.461 76.5467 78.6688 77.339 77.6926 77.339Z" fill="white"/>
    <path d="M96.0842 77.339H86.4169C85.4407 77.339 84.6484 76.5467 84.6484 75.5705C84.6484 74.5944 85.4407 73.8021 86.4169 73.8021H96.0842C97.0604 73.8021 97.8526 74.5944 97.8526 75.5705C97.8526 76.5467 97.0604 77.339 96.0842 77.339Z" fill="white"/>
    <path d="M60.0083 87.2422H53.8778C52.9016 87.2422 52.1094 86.4499 52.1094 85.4737C52.1094 84.4976 52.9016 83.7053 53.8778 83.7053H60.0083C60.9845 83.7053 61.7767 84.4976 61.7767 85.4737C61.7767 86.4499 60.9845 87.2422 60.0083 87.2422Z" fill="white"/>
    <path d="M77.6926 87.2422H68.0253C67.0491 87.2422 66.2568 86.4499 66.2568 85.4737C66.2568 84.4976 67.0491 83.7053 68.0253 83.7053H77.6926C78.6688 83.7053 79.461 84.4976 79.461 85.4737C79.461 86.4499 78.6688 87.2422 77.6926 87.2422Z" fill="white"/>
    <path d="M96.0842 87.2422H86.4169C85.4407 87.2422 84.6484 86.4499 84.6484 85.4737C84.6484 84.4976 85.4407 83.7053 86.4169 83.7053H96.0842C97.0604 83.7053 97.8526 84.4976 97.8526 85.4737C97.8526 86.4499 97.0604 87.2422 96.0842 87.2422Z" fill="white"/>
    <path d="M42.8264 96.4379H22.8409C21.8648 96.4379 21.0725 95.6457 21.0725 94.6695V75.5705C21.0725 74.5944 21.8648 73.8021 22.8409 73.8021H42.8264C43.8026 73.8021 44.5949 74.5944 44.5949 75.5705V94.6695C44.5949 95.6457 43.8026 96.4379 42.8264 96.4379ZM24.6094 92.9011H41.058V77.339H24.6094V92.9011Z" fill="white"/>
    <path d="M32.7748 95.6127C31.7986 95.6127 31.0063 94.8204 31.0063 93.8443V75.6885C31.0063 74.7123 31.7986 73.92 32.7748 73.92C33.7509 73.92 34.5432 74.7123 34.5432 75.6885V93.8443C34.5432 94.8204 33.7509 95.6127 32.7748 95.6127Z" fill="white"/>
  </g>
  <defs>
    <clipPath id="clip0_138_226">
      <rect width="112" height="96.4379" fill="white"/>
    </clipPath>
  </defs>
</svg>