<svg xmlns:xlink="http://www.w3.org/1999/xlink" xmlns="http://www.w3.org/2000/svg" width="46" height="48" viewBox="0 0 46 48" fill="none">
  <g clip-path="url(#clip0_273_3639)">
    <path d="M6.36972 2.39591L3.87673 5.74014C-0.515887 11.6329 -0.0361589 20.0526 4.9939 25.35L20.9888 42.1949C26.0188 47.4923 34.0138 47.9975 39.6092 43.3714L42.7847 40.7462C44.5048 39.3241 44.6577 36.6385 43.1115 35.01L36.142 27.6702C34.7179 26.1705 32.4091 26.1705 30.985 27.6702L28.7176 30.0581C27.6469 31.1857 25.9111 31.1857 24.8404 30.0581L16.5128 21.288C15.4421 20.1604 15.4421 18.3324 16.5128 17.2048L18.7802 14.8169C20.2043 13.3171 20.2043 10.8857 18.7802 9.38586L11.8164 2.05196C10.27 0.423408 7.72001 0.584493 6.36972 2.39591Z" fill="#4C71BC"/>
    <path d="M36.1421 27.6702C34.718 26.1705 32.4092 26.1705 30.9851 27.6702L28.7177 30.0581C28.6912 30.086 28.664 30.1127 28.6367 30.1392L40.5012 42.6342L42.7848 40.7463C44.5049 39.3242 44.6578 36.6386 43.1115 35.0101L36.1421 27.6702Z" fill="#638CE0"/>
    <path d="M11.8165 2.0518C10.2703 0.423436 7.72015 0.584521 6.36986 2.39594L4.57715 4.8009L16.436 17.2899C16.4611 17.2612 16.4865 17.2325 16.513 17.2046L18.7804 14.8167C20.2044 13.317 20.2044 10.8855 18.7804 9.38571L11.8165 2.0518Z" fill="#638CE0"/>
    <path d="M43.7339 34.3545L36.7643 27.0146C34.9993 25.1558 32.1276 25.1558 30.3627 27.0146L28.0953 29.4026C27.3694 30.167 26.1885 30.167 25.4629 29.4026L17.1352 20.6324C16.4093 19.868 16.4093 18.6244 17.1352 17.8601L19.4026 15.4722C20.2576 14.5718 20.7283 13.3747 20.7283 12.1013C20.7283 10.8279 20.2575 9.6308 19.4026 8.73038L12.4388 1.39647C11.5238 0.43293 10.2585 -0.0724757 8.96687 0.0087155C7.67536 0.0902774 6.47635 0.751856 5.67742 1.82365L3.18461 5.16788C-1.47855 11.4236 -0.968279 20.3819 4.37165 26.0055L20.3665 42.8502C23.2631 45.9007 27.0899 47.4546 30.9345 47.4542C34.1781 47.454 37.4347 46.3476 40.1526 44.1004L43.3282 41.4751C44.3459 40.6336 44.974 39.371 45.0515 38.0107C45.1291 36.6507 44.6488 35.318 43.7339 34.3545ZM43.2944 37.8999C43.247 38.7312 42.8632 39.5028 42.2412 40.0171L40.5593 41.4076L35.2804 35.8482C34.9368 35.4864 34.3794 35.4864 34.0357 35.8482C33.692 36.2102 33.692 36.7971 34.0357 37.1592L39.1646 42.5607L39.0658 42.6424C33.8257 46.9748 26.3221 46.5006 21.6113 41.5396L5.61634 24.6946C0.905748 19.7337 0.455503 11.8311 4.56914 6.31262L7.06195 2.96839C7.55012 2.3134 8.28296 1.90911 9.07221 1.85924C9.86225 1.80966 10.6349 2.11848 11.194 2.7073L18.1578 10.0412C19.2364 11.177 19.2364 13.0254 18.1578 14.1612L16.4301 15.9808L10.1286 9.34441C9.78489 8.98248 9.22754 8.98248 8.88379 9.34441C8.54012 9.70634 8.54012 10.2933 8.88379 10.6553L15.2847 17.3964C14.5215 18.8468 14.7226 20.7137 15.8903 21.9432L24.218 30.7135C25.63 32.2004 27.9276 32.2005 29.3399 30.7135L31.6073 28.3255C32.6859 27.1894 34.4409 27.1894 35.5195 28.3255L42.4889 35.6654C43.0482 36.2543 43.3417 37.0687 43.2944 37.8999Z" fill="black"/>
    <path d="M32.3418 34.9911C32.1104 34.9911 31.8833 34.8919 31.7195 34.7194C31.5558 34.5471 31.4617 34.308 31.4617 34.0641C31.4617 33.8203 31.5558 33.5813 31.7195 33.4088C31.8832 33.2364 32.1103 33.1372 32.3418 33.1372C32.5742 33.1372 32.8003 33.2363 32.9641 33.4088C33.1279 33.5813 33.222 33.8203 33.222 34.0641C33.222 34.308 33.1278 34.547 32.9641 34.7194C32.8003 34.8919 32.5733 34.9911 32.3418 34.9911Z" fill="black"/>
    <path d="M11.0291 26.1991C10.7967 26.1991 10.5706 26.1008 10.4059 25.9275C10.2422 25.7551 10.1489 25.5161 10.1489 25.2721C10.1489 25.0284 10.2422 24.7903 10.4059 24.6169C10.5696 24.4445 10.7967 24.3452 11.0291 24.3452C11.2605 24.3452 11.4876 24.4444 11.6514 24.6169C11.8151 24.7902 11.9092 25.0283 11.9092 25.2721C11.9092 25.5169 11.8151 25.755 11.6514 25.9275C11.4876 26.1008 11.2605 26.1991 11.0291 26.1991Z" fill="black"/>
    <path d="M8.3589 23.3881C8.13369 23.3881 7.90839 23.2976 7.73651 23.1166L7.12055 22.4679C4.6126 19.8266 3.63326 15.9461 4.5649 12.3409C4.69251 11.847 5.17594 11.5551 5.64528 11.6899C6.11427 11.8242 6.39106 12.3337 6.26345 12.8276C5.49717 15.7931 6.30261 18.9846 8.36541 21.157L8.98138 21.8057C9.32504 22.1676 9.32504 22.7546 8.98138 23.1166C8.80941 23.2976 8.58411 23.3881 8.3589 23.3881Z" fill="black"/>
    <path d="M44.1795 20.002C43.6934 20.002 43.2993 19.587 43.2993 19.075C43.2993 9.57917 35.9638 1.85377 26.9471 1.85377C26.461 1.85377 26.0669 1.43883 26.0669 0.92684C26.0669 0.414854 26.461 0 26.9471 0C36.9345 0 45.0597 8.55705 45.0597 19.0751C45.0597 19.587 44.6657 20.002 44.1795 20.002Z" fill="black"/>
    <path d="M38.1228 20.0019C37.6368 20.0019 37.2427 19.587 37.2427 19.075C37.2427 13.0964 32.6242 8.23253 26.9473 8.23253C26.4612 8.23253 26.0671 7.81758 26.0671 7.3056C26.0671 6.7937 26.4611 6.37866 26.9473 6.37866C33.5948 6.37866 39.003 12.0742 39.003 19.075C39.003 19.587 38.6089 20.0019 38.1228 20.0019Z" fill="black"/>
    <path d="M31.7369 20.002C31.2509 20.002 30.8568 19.5871 30.8568 19.0751C30.8568 16.8048 29.103 14.9579 26.9473 14.9579C26.4612 14.9579 26.0671 14.5429 26.0671 14.0309C26.0671 13.519 26.4611 13.104 26.9473 13.104C30.0737 13.104 32.6171 15.7826 32.6171 19.0751C32.6171 19.5871 32.223 20.002 31.7369 20.002Z" fill="black"/>
  </g>
  <defs>
    <clipPath id="clip0_273_3639">
      <rect width="45.0597" height="47.4542" fill="white"/>
    </clipPath>
  </defs>
</svg>