<svg xmlns:xlink="http://www.w3.org/1999/xlink" xmlns="http://www.w3.org/2000/svg" width="43" height="43" viewBox="0 0 43 43" fill="none">
  <circle cx="21.5" cy="21.5" r="21.5" fill="#233479"/>
  <path d="M20.7565 31H14.4783C13.821 31 13.1906 30.7389 12.7259 30.2741C12.2611 29.8094 12 29.179 12 28.5217V14.4783C12 13.821 12.2611 13.1906 12.7259 12.7259C13.1906 12.2611 13.821 12 14.4783 12H28.5217C29.179 12 29.8094 12.2611 30.2741 12.7259C30.7389 13.1906 31 13.821 31 14.4783V28.5217C31 29.179 30.7389 29.8094 30.2741 30.2741C29.8094 30.7389 29.179 31 28.5217 31H24.0154V24.6061H26.3285L26.7993 21.6652H24.0154V19.4877C24.0159 19.1493 24.1505 18.8249 24.3897 18.5857C24.629 18.3464 24.9534 18.2118 25.2917 18.2113L26.8002 18.251V15.5051L24.5648 15.4225C23.5548 15.4227 22.5863 15.824 21.8722 16.5381C21.158 17.2523 20.7567 18.2208 20.7565 19.2307V21.6652H18.1717V24.6061H20.7565V31Z" fill="#4C71BC"/>
</svg>