<svg xmlns:xlink="http://www.w3.org/1999/xlink" xmlns="http://www.w3.org/2000/svg" width="15" height="15" viewBox="0 0 15 15" fill="none">
  <g clip-path="url(#clip0_273_3192)">
    <path d="M13.9773 12.2727H11.591C10.0872 12.2727 8.86376 11.0493 8.86376 9.54553C8.86376 8.04176 10.0872 6.81831 11.591 6.81831H13.9773C14.1657 6.81831 14.3182 6.66583 14.3182 6.4774V5.45469C14.3182 4.73981 13.7637 4.15843 13.0631 4.10206L11.1053 0.68237C10.9238 0.366096 10.6309 0.140045 10.2803 0.0461797C9.9314 -0.0470468 9.56655 0.00191551 9.25427 0.18367L2.54264 4.09106H1.36387C0.611825 4.09106 0.000244141 4.70261 0.000244141 5.45469V13.6364C0.000244141 14.3884 0.611793 15 1.36387 15H12.9546C13.7066 15 14.3182 14.3884 14.3182 13.6364V12.6137C14.3182 12.4252 14.1657 12.2727 13.9773 12.2727ZM11.5281 2.79363L12.2709 4.09106H9.29956L11.5281 2.79363ZM3.89773 4.09106L9.59749 0.772911C9.75163 0.682689 9.93172 0.658719 10.1039 0.704677C10.278 0.751275 10.4231 0.863805 10.5134 1.02127L10.5141 1.02252L5.24358 4.09106H3.89773Z" fill="white"/>
    <path d="M13.9772 7.50012H11.5908C10.4629 7.50012 9.54541 8.41762 9.54541 9.54554C9.54541 10.6735 10.4629 11.591 11.5908 11.591H13.9772C14.5411 11.591 14.9999 11.1322 14.9999 10.5683V8.52283C14.9999 7.95887 14.5411 7.50012 13.9772 7.50012ZM11.5908 10.2273C11.215 10.2273 10.909 9.92139 10.909 9.54554C10.909 9.1697 11.215 8.86375 11.5908 8.86375C11.9667 8.86375 12.2726 9.1697 12.2726 9.54554C12.2727 9.92139 11.9667 10.2273 11.5908 10.2273Z" fill="white"/>
  </g>
  <defs>
    <clipPath id="clip0_273_3192">
      <rect width="15" height="15" fill="white"/>
    </clipPath>
  </defs>
</svg>