<svg xmlns="http://www.w3.org/2000/svg" xmlns:xlink="http://www.w3.org/1999/xlink" version="1.1" id="Layer_1" x="0px" y="0px" viewBox="0 0 5000 5000" style="enable-background:new 0 0 5000 5000;" xml:space="preserve" width="297"  height="297" >
<style type="text/css">
	.st0{fill:#FFFFFF;}
</style>
<g transform="translate(0.000000,5000.000000) scale(0.100000,-0.100000)">
	<path class="st0" d="M12250,33630v-310h1055h1055l2-2952l3-2953l318-3l317-2v2955v2955h1060h1060v310v310h-2435h-2435V33630z"/>
	<path class="st0" d="M29100,33020v-800l-302-2l-303-3v-270v-270l302-3l303-2l3-1783l3-1782l22-80c36-131,121-289,203-379   c167-181,382-272,664-283c278-11,560,55,907,211c69,32,134,63,143,70c16,12,11,34-66,289l-83,276l-40-25c-73-45-210-111-284-138   c-143-51-352-71-474-45c-132,29-265,125-319,231c-62,122-59,28-59,1811v1627h500h500v275v275h-500h-500v800v800h-310h-310V33020z"/>
	<path class="st0" d="M41938,32975c-154-39-320-150-428-286c-44-56-73-138-63-178c3-14,132-217,286-451c249-378,513-778,1121-1700   c99-151,402-610,673-1020c270-410,623-945,785-1190c804-1219,961-1457,1141-1730c194-293,971-1472,1071-1625l53-80l-20-30   c-12-16-159-223-327-460c-168-236-401-563-516-725c-116-162-603-846-1084-1520c-1091-1530-1375-1928-2185-3065   c-357-500-725-1017-818-1147l-169-238l-19121-3l-19122-2l-86-22c-302-76-479-222-479-395c0-163,169-310,445-386l100-27l19145-3   c13579-2,19169,0,19228,8c45,6,120,22,165,36s110,29,144,33c35,5,69,14,78,21c17,14,133,169,236,317c108,154,964,1358,1009,1418   c21,28,122,169,225,315c104,146,221,310,260,365c40,55,307,431,595,835s555,780,595,835c39,55,341,478,670,940   c549,770,1495,2097,1790,2511c146,203,146,204,144,252c0,23,9,56,25,86c28,53,34,113,15,148c-13,24-69,109-1124,1708   c-579,878-1057,1603-1332,2020c-107,162-278,421-380,575s-320,485-485,735s-384,583-487,740c-181,274-612,927-1257,1905   c-167,253-313,466-325,474C42097,32988,42003,32992,41938,32975z"/>
	<path class="st0" d="M26060,32285c-292-34-562-121-765-245c-333-204-549-525-622-925c-24-129-24-430,0-544c33-155,82-267,162-371   c171-222,522-393,1167-569c101-27,267-73,370-101c399-108,616-190,772-294c211-141,296-310,283-565c-12-221-74-373-212-513   c-136-140-346-239-605-284c-146-26-480-26-634,0c-132,21-323,73-431,116c-220,87-493,258-734,459c-40,34-78,60-82,59   c-5-2-72-104-149-228l-140-225l57-53c320-293,689-487,1136-597c430-106,906-108,1302-6c198,51,409,150,566,267   c270,201,425,443,500,779c30,131,37,406,15,544c-53,336-234,575-576,761c-234,127-586,248-1169,400c-544,142-748,225-882,360   c-112,111-144,216-136,450c5,157,11,192,50,290c139,357,524,549,1057,527c466-20,855-173,1149-453c57-54,106-93,110-88   c27,30,291,384,291,390c0,18-122,142-209,212c-324,261-700,405-1175,451C26387,32303,26195,32301,26060,32285z"/>
	<path class="st0" d="M18775,32224c-483-84-918-427-1212-954l-53-95l-2,520l-3,520l-292,3l-293,2v-2405v-2405h310h310v1493v1493   l31,85c47,130,134,304,204,409c269,401,701,661,1180,710c61,6,129,14,153,16l42,5v304c0,267-2,304-16,309   C19105,32245,18856,32238,18775,32224z"/>
	<path class="st0" d="M19823,30613c3-1757,1-1699,63-2014c139-716,468-1117,1014-1239c251-56,611-41,877,36   c499,144,932,476,1206,923l52,84l6-279c4-223,9-292,23-344c51-188,179-323,346-366c51-13,95-15,210-12c80,3,153,9,163,13   c16,7,17,31,17,301v293l-52,7c-65,9-122,57-140,118c-9,31-12,539-13,2051c-1,1106-2,2016-3,2023c-2,9-71,12-307,12   c-284,0-305-1-305-17c0-10,0-687,0-1504v-1486l-39-100c-117-300-275-539-498-753c-187-180-357-285-578-359c-160-54-271-72-435-72   c-150,0-214,9-310,41c-323,108-526,388-621,854c-54,265-52,206-58,1856l-6,1535l-308,3l-308,2L19823,30613z"/>
	<path class="st0" d="M27013,26556c-212-41-371-125-522-277c-179-181-318-445-394-749c-54-213-78-406-93-752l-6-138h-269h-269v-285   v-285h270h270v-2060v-2060h300h300v2060v2060h545h545v285v285h-547h-546l6,188c17,473,107,771,288,954c124,126,261,176,453,165   c186-11,353-72,482-177l62-49l95,262l96,262l-42,37c-119,104-337,208-533,254C27368,26568,27126,26577,27013,26556z"/>
	<path class="st0" d="M28300,25990v-490h300h300v490v490h-300h-300V25990z"/>
	<path class="st0" d="M12230,23130v-3180h305h305v1155v1155h758h757l36-68c36-67,437-804,947-1742l269-495l347-3c190-1,346,0,346,3   c0,6-61,119-558,1035c-157,289-359,662-450,830c-153,284-290,537-298,551c-2,4,31,19,74,34c147,51,314,150,427,254   c224,205,401,477,511,788c228,645,184,1342-122,1923c-109,205-221,356-380,511c-263,254-537,389-852,419c-65,6-559,10-1264,10   h-1158V23130z M14616,25649c199-35,365-129,526-297c172-180,303-440,358-712c62-304,42-636-56-929c-145-435-398-705-739-789   c-50-13-206-16-962-19l-903-4v1380v1381h858C14254,25660,14577,25656,14616,25649z"/>
	<path class="st0" d="M18450,24710c-473-56-904-308-1232-720c-683-857-756-2214-171-3175c202-331,509-620,832-785   c201-102,503-170,756-170c113,0,315,24,420,49c610,148,1130,652,1390,1345c189,506,234,1085,124,1625c-87,432-295,866-562,1177   c-299,348-667,564-1087,639C18817,24714,18553,24722,18450,24710z M18855,24066c454-96,837-473,1038-1021c154-418,170-940,42-1385   c-105-364-317-696-573-897c-189-149-326-215-527-254c-356-69-723,49-1013,325c-193,185-346,432-450,726c-141,403-150,930-23,1357   c189,632,617,1077,1115,1159C18562,24092,18756,24087,18855,24066z"/>
	<path class="st0" d="M22935,24709c-640-63-1232-530-1546-1219c-175-383-259-778-259-1215c1-969,451-1819,1170-2213   c484-265,1134-267,1620-5c577,310,980,898,1129,1648c62,309,70,729,20,1045c-16,102-58,284-89,384c-127,412-313,736-584,1015   C23985,24570,23483,24763,22935,24709z M23335,24066c206-44,391-144,572-308c217-196,375-448,478-760c295-899,3-1896-685-2335   c-313-200-711-228-1044-74c-476,220-825,761-906,1406c-15,115-15,433-1,550c19,152,51,294,97,434c157,471,436,821,802,1005   c80,40,182,73,289,92C23032,24092,23236,24088,23335,24066z"/>
	<path class="st0" d="M31975,24714c-474-47-871-248-1213-618c-89-96-150-175-218-283l-54-86v456v457h-275h-275v-2345v-2345h300h300   l2,1453l3,1452l28,80c16,44,57,139,92,210c106,217,210,363,381,531c262,259,562,394,873,394c437,0,678-282,765-895   c33-230,36-393,36-1807v-1418h300h301l-4,1568c-4,1668-3,1650-53,1962c-128,810-496,1219-1109,1235   C32078,24717,31997,24716,31975,24714z"/>
	<path class="st0" d="M35730,24709c-558-67-1074-475-1370-1084c-182-374-275-769-295-1250c-19-453,83-937,285-1350   c125-256,254-440,439-626c233-233,489-391,748-459c187-50,456-64,629-35c439,75,860,353,1118,739l46,70v-445c0-436-5-537-36-687   c-32-156-114-349-204-482c-302-445-921-642-1535-489c-290,73-515,196-705,388c-104,106-158,176-237,308c-29,49-58,97-66,107   c-12,18-25,8-196-149c-100-92-185-174-188-181c-6-16,105-204,184-314c208-286,490-521,763-633c275-114,638-168,987-147   c176,11,202,14,358,47c792,167,1310,723,1452,1563c16,98,18,262,20,2573l3,2467h-270h-270l-1-427c0-335-3-424-12-409   c-124,195-440,534-612,655c-166,116-344,193-542,231C36096,24715,35858,24724,35730,24709z M36191,24074c333-63,673-295,901-615   c73-103,172-284,212-393l26-68v-723v-723l-25-88c-53-180-195-410-354-573c-208-211-453-344-711-386c-167-27-315-16-494,36   c-300,88-606,345-799,671c-79,134-159,324-201,480c-160,589-61,1294,250,1779c175,274,442,493,694,570   C35851,24090,36042,24103,36191,24074z"/>
	<path class="st0" d="M28300,22295v-2345h300h300v2345v2345h-300h-300V22295z"/>
	<path class="st0" d="M22359,15357c-99-66-107-200-17-267c43-32,122-38,173-15c115,55,116,234,2,288   C22466,15387,22400,15385,22359,15357z"/>
	<path class="st0" d="M38469,15357c-105-70-107-212-4-272c112-66,246,6,248,134C38715,15343,38570,15425,38469,15357z"/>
	<path class="st0" d="M8138,15306c-239-42-451-167-591-346c-69-89-158-266-187-370c-69-256-67-580,5-810c68-217,208-411,380-530   c68-47,199-105,290-130c113-30,354-38,483-16c321,56,555,230,697,521c98,200,131,377,122,663c-8,263-53,422-172,607   c-129,200-314,336-540,396C8523,15318,8256,15326,8138,15306z M8513,15070c183-34,356-166,445-338c89-171,117-320,109-581   c-5-197-24-291-82-418c-110-239-296-372-569-404c-222-26-427,37-575,175c-164,155-247,363-258,647c-13,330,73,572,266,751   c105,97,234,158,373,178C8291,15090,8433,15085,8513,15070z"/>
	<path class="st0" d="M25950,15302c-117-25-208-57-292-103c-333-183-518-545-518-1014c0-364,111-646,335-853   c178-163,396-242,668-242c339,0,599,114,783,345c167,208,244,459,244,791c-1,287-50,476-175,669c-130,201-315,336-540,396   C26341,15321,26071,15327,25950,15302z M26272,15080c333-38,554-273,615-654c22-142,14-418-17-536c-88-340-319-539-657-565   c-375-29-669,193-769,583c-35,135-44,347-20,490c37,222,114,373,255,504C25838,15049,26032,15107,26272,15080z"/>
	<path class="st0" d="M6190,15258c0-13,9-149,20-303s20-295,20-312v-33h89h90l5,43c3,23,12,152,21,287c8,135,18,266,21,293l6,47   h-136C6192,15280,6190,15280,6190,15258z"/>
	<path class="st0" d="M6707,14963c12-175,22-326,22-335c1-16,12-18,91-18s90,2,90,18c0,9,9,143,20,297s20,297,20,318v37h-133h-132   L6707,14963z"/>
	<path class="st0" d="M13410,14205v-1075h130h131l-3,913l-3,914l36-66c20-36,74-123,120-193s109-167,141-215   c135-211,437-677,502-778c40-60,139-215,222-342l149-233h158h157v1075v1075h-131h-130l3-900c2-495,3-900,3-900   c-1,0-259,405-575,900l-575,900h-167h-168V14205z"/>
	<path class="st0" d="M31240,14205v-1075h130h130v405v405h203c251,0,343,16,485,85c184,90,318,262,357,457c62,316-58,597-309,718   c-148,72-212,80-633,80h-363V14205z M31993,15026c187-52,283-170,294-366c12-195-65-348-214-424c-92-46-155-57-370-63l-203-6v443   v443l218-6C31871,15044,31952,15037,31993,15026z"/>
	<path class="st0" d="M42100,15258c0-13,9-149,20-303s20-295,20-312v-33h89h90l5,43c3,23,12,152,21,287c8,135,18,266,21,293l5,47   h-136C42102,15280,42100,15280,42100,15258z"/>
	<path class="st0" d="M42617,14963c12-175,22-326,22-335c1-16,12-18,91-18c65,0,90,3,90,13c0,6,9,143,20,302c11,160,20,305,20,323   v32h-133h-132L42617,14963z"/>
	<path class="st0" d="M16085,14703c-82-12-199-49-282-89l-93-46v-129c0-71,2-129,5-129c2,0,33,20,68,45c137,96,265,138,422,139   c90,1,106-2,158-27c91-45,139-125,159-266c6-45,9-83,7-85s-119-21-260-40c-141-20-290-46-330-57c-217-60-342-195-371-398   c-30-213,55-392,225-476c86-42,150-55,268-55c174,0,321,72,417,206l47,64l3-115l3-115h124h125v548c-1,611-4,652-64,778   c-60,127-159,204-308,239C16349,14709,16161,14713,16085,14703z M16527,13778c-4-107-10-146-30-200c-43-119-135-213-247-254   c-72-26-212-23-278,6c-107,47-162,146-148,271c12,120,70,184,208,228c27,9,402,70,492,80C16529,13910,16531,13853,16527,13778z"/>
	<path class="st0" d="M17792,14685c-114-39-189-94-258-188l-44-59v116v116h-125h-125l-2-760c-2-418-1-765,0-770c2-6,54-10,128-10   h124v488c0,456,1,494,20,567c57,223,216,339,418,305c125-21,200-89,244-219c22-64,23-79,26-603l3-538h124h124l3,493   c4,428,6,500,21,551c38,129,127,245,225,293c49,24,68,28,142,27c202-2,294-105,320-363c6-53,10-285,10-516s0-435,0-452v-33h126h125   l-4,563c-4,616-5,626-68,764c-33,75-110,160-177,196c-140,76-364,76-520,1c-67-33-165-123-212-196l-37-57l-29,61   c-33,70-109,153-174,191C18093,14715,17921,14728,17792,14685z"/>
	<path class="st0" d="M20310,14691c-137-39-221-91-327-205c-191-205-260-549-177-883c47-192,172-361,324-438c110-56,183-70,360-70   c100,0,189,6,225,14c80,18,201,64,255,99l45,28l-3,118l-3,118l-22-16c-219-157-496-197-694-101c-150,74-233,214-256,433l-6,52h544   h545v109c0,410-157,665-456,741C20563,14716,20402,14716,20310,14691z M20585,14485c138-36,223-130,260-287c8-35,15-82,15-105v-43   h-410c-474,0-428-14-385,117C20148,14412,20362,14543,20585,14485z"/>
	<path class="st0" d="M23451,14700c-191-40-335-141-399-278c-21-44-27-76-30-144c-10-234,92-342,459-488c140-56,193-86,239-136   c78-85,78-198,1-275c-51-51-126-72-261-73c-58,0-130,6-160,13c-61,15-204,78-249,110c-16,12-32,21-35,21s-6-60-6-134v-133l58-26   c116-52,173-62,362-61c171,0,177,0,269,32c198,69,305,182,331,350c18,110-8,216-74,305c-52,70-187,149-409,237   c-215,85-272,143-265,270c5,89,35,130,127,173c62,29,73,31,176,31c125-1,205-18,305-67c36-18,68-33,73-35c4-2,7,53,7,122   c0,144,8,132-111,167C23776,14705,23530,14716,23451,14700z"/>
	<path class="st0" d="M34508,14700c-158-28-313-109-411-215c-47-49-112-156-141-227c-82-208-85-511-7-715c83-213,254-369,471-430   c51-14,100-18,230-17c152,0,172,3,250,28c199,65,352,203,436,392c85,192,96,498,27,719c-37,117-87,200-173,286   c-82,82-168,132-285,164C34836,14704,34583,14714,34508,14700z M34749,14490c190-29,319-153,377-361c26-90,26-366,1-459   c-56-209-185-331-380-360c-283-42-508,110-578,390c-21,83-18,327,5,410C34250,14387,34469,14531,34749,14490z"/>
	<path class="st0" d="M36352,14685c-114-39-189-94-258-188l-44-59v116v116h-125h-125l-2-760c-2-418-1-765,0-770c2-6,54-10,128-10   h124v488c0,456,1,494,20,567c57,223,216,339,418,305c125-21,200-89,244-219c22-64,23-79,26-603l3-538h124h124l3,493   c4,428,6,500,21,551c38,129,127,245,225,293c49,24,68,28,142,27c201-2,293-105,320-358c5-50,10-297,10-548v-458h126h125l-4,563   c-4,616-5,626-68,764c-33,75-110,160-177,196c-140,76-364,76-520,1c-67-33-165-123-212-196l-37-57l-29,61c-33,70-109,153-174,191   C36653,14715,36481,14728,36352,14685z"/>
	<path class="st0" d="M39512,14686c-50-14-116-37-144-53c-76-41-160-123-199-195c-33-61-34-66-34-178c0-103,3-121,26-171   c53-113,175-198,429-299c141-56,193-86,240-136c78-85,78-198,1-275c-97-98-365-102-559-9c-46,22-97,49-112,60s-31,20-34,20   s-6-60-6-134v-133l58-26c115-51,174-62,352-62c130,0,180,4,235,19c155,41,283,134,339,244c74,147,47,341-65,453   c-72,72-166,122-407,219c-189,75-247,138-240,260c5,89,35,130,127,173c60,28,75,31,166,31c123,0,227-22,320-69c38-19,70-35,72-35   s3,56,3,125v125l-36,15c-83,34-153,47-294,51C39619,14710,39596,14708,39512,14686z"/>
	<path class="st0" d="M40950,14691c-137-39-221-91-327-205c-160-172-237-442-205-723c43-372,224-596,532-659c110-22,328-15,441,14   c81,22,192,69,237,100l27,20l-3,117l-3,117l-22-16c-219-157-496-197-694-101c-150,74-233,214-256,433l-6,52h544h545v109   c0,410-157,665-456,741C41203,14716,41042,14716,40950,14691z M41225,14485c138-36,223-130,260-287c8-35,15-82,15-105v-43h-410   c-474,0-428-14-385,117C40788,14412,41002,14543,41225,14485z"/>
	<path class="st0" d="M12011,14674c-106-37-192-119-252-238l-39-78v156v156h-125h-125v-770v-770h124h125l4,473c3,413,6,479,21,531   c42,142,118,246,215,293c73,37,189,38,265,5c27-12,50-22,52-22s4,58,4,130v129l-37,10C12188,14695,12062,14691,12011,14674z"/>
	<path class="st0" d="M29841,14674c-107-38-191-117-251-236l-40-80v156v156h-125h-125v-770v-770h124h125l4,473c3,413,6,479,21,531   c42,142,118,246,215,293c74,37,189,39,265,5c27-12,50-22,52-22s4,58,4,130v129l-37,10C30018,14695,29892,14691,29841,14674z"/>
	<path class="st0" d="M33471,14674c-106-37-192-119-252-238l-39-78v156v156h-125h-125v-770v-770h124h125l4,473c3,413,6,479,21,531   c42,142,118,246,214,293c74,36,191,38,266,5c27-12,50-22,52-22s4,58,4,130v129l-37,10C33648,14695,33522,14691,33471,14674z"/>
	<path class="st0" d="M9690,14208c0-469,8-626,35-733c41-156,128-272,249-329c39-19,95-39,124-45c66-14,202-14,273-1   c118,22,249,111,318,214l26,40l3-112l3-112h129h130v770v770h-130h-130v-493c0-405-3-503-15-550c-59-226-243-353-458-318   c-121,20-191,70-243,172c-51,102-54,134-54,682v507h-130h-130V14208z"/>
	<path class="st0" d="M22310,14065c0-621,2-662,41-752c26-61,101-137,162-164c45-21,68-24,167-24c63,0,127,3,143,8l27,7v110v110   l-27-7c-16-4-57-7-93-7c-78,0-111,18-143,78c-22,41-22,45-25,644l-3,602h-124h-125V14065z"/>
	<path class="st0" d="M27520,14208c0-595,10-707,79-853c78-166,220-252,436-262c68-3,132-1,168,6c121,26,248,112,316,215l26,40   l3-112l3-112h129h130v770v770h-130h-130v-493c0-405-3-503-15-550c-59-226-243-353-458-318c-120,20-192,72-246,178   c-48,95-51,134-51,676v507h-130h-130V14208z"/>
	<path class="st0" d="M38420,14065c0-621,2-662,41-752c26-61,101-137,162-164c45-21,68-24,167-24c63,0,127,3,143,8l27,7v111   c0,95-2,110-15,105c-8-3-42-8-74-12c-82-8-141,18-173,78l-23,43l-3,603l-3,602h-124h-125V14065z"/>
</g>
</svg>