<svg xmlns:xlink="http://www.w3.org/1999/xlink" xmlns="http://www.w3.org/2000/svg" width="55" height="55" viewBox="0 0 55 55" fill="none">
  <circle cx="27.5" cy="27.5" r="27.5" fill="white"/>
  <g clip-path="url(#clip0_156_326)">
    <path d="M44.6596 13.2537L31.5642 22.7211L29.4153 24.2783C28.277 25.1191 26.7231 25.1191 25.5848 24.2783L23.4359 22.7211L10.325 13.2693C11.0537 12.2494 12.2325 11.6452 13.486 11.6499H41.5143C42.7584 11.6499 43.9278 12.2463 44.6596 13.2537Z" fill="#638CE0"/>
    <path d="M10.3249 13.2695L23.436 22.7213L10.7298 35.4275C9.99945 34.6957 9.59151 33.7037 9.59305 32.6713V15.5429C9.58997 14.7255 9.84535 13.9298 10.3249 13.2695Z" fill="#4C71BC"/>
    <path d="M45.4069 15.5429V32.6714C45.4085 33.7037 45.0005 34.6956 44.2703 35.4275L31.5641 22.7213L44.6595 13.2539C45.1454 13.9173 45.4069 14.7192 45.4069 15.5429Z" fill="#4C71BC"/>
    <path d="M32.95 39.6782C31.916 39.6782 31.3928 38.8997 31.3928 37.3425C31.4177 35.1673 29.6753 33.3828 27.5 33.3578C25.3247 33.3328 23.5403 35.0753 23.5153 37.2506C23.4904 39.4259 25.2328 41.2104 27.4081 41.2353C28.5744 41.2493 29.6862 40.7449 30.4445 39.8604C30.9615 40.7464 31.9253 41.2758 32.95 41.2353C36.0642 41.2353 36.0642 38.3048 36.0642 37.3425C36.0642 32.612 32.2306 28.7783 27.5 28.7783C22.7694 28.7783 18.9358 32.612 18.9358 37.341C18.9358 42.0701 22.7695 45.9052 27.5 45.9052C29.722 45.9052 31.8569 45.041 33.4545 43.4963C33.7644 43.1958 33.7706 42.7006 33.4701 42.3923C33.1696 42.0824 32.6744 42.0762 32.3646 42.3767C29.5788 45.0628 25.1426 44.9834 22.4565 42.1976C19.7705 39.4119 19.8499 34.9757 22.6356 32.2896C25.4213 29.6036 29.8576 29.683 32.5436 32.4687C33.8049 33.7767 34.5087 35.5238 34.5072 37.3409C34.5071 39.0881 34.1148 39.6782 32.95 39.6782ZM27.5 39.6782C26.2107 39.6782 25.1643 38.6318 25.1643 37.3425C25.1643 36.0532 26.2107 35.0069 27.5 35.0069C28.7893 35.0069 29.8357 36.0517 29.8357 37.3425C29.8358 38.6334 28.7893 39.6782 27.5 39.6782Z" fill="#455A64"/>
    <path d="M31.5641 22.7212L29.4152 24.2783C28.277 25.1192 26.723 25.1192 25.5847 24.2783L23.4359 22.7212L10.7297 35.4273C11.4616 36.1576 12.4535 36.5656 13.4859 36.564H17.4176C17.8396 30.9957 22.6947 26.8241 28.2615 27.2446C33.2443 27.6214 37.2041 31.5812 37.5809 36.564H41.5142C42.5466 36.5655 43.5385 36.1576 44.2703 35.4273L31.5641 22.7212Z" fill="#3B5998"/>
    <path d="M41.5142 36.564H38.3999C37.9701 36.564 37.6214 36.2152 37.6214 35.7854C37.6214 35.3557 37.9701 35.0069 38.3999 35.0069H41.5142C42.8019 35.0069 43.8498 33.9589 43.8498 32.6712V15.5427C43.8498 14.2549 42.8019 13.207 41.5142 13.207H13.4859C12.1981 13.207 11.1502 14.2534 11.1502 15.5427V32.6712C11.1502 33.9589 12.1982 35.0068 13.4859 35.0068H16.6002C17.0299 35.0068 17.3787 35.3541 17.3787 35.7854C17.3787 36.2167 17.0299 36.5639 16.6002 36.5639H13.4859C11.3401 36.564 9.59302 34.8168 9.59302 32.6711V15.5427C9.59302 13.397 11.3401 11.6499 13.4859 11.6499H41.5142C43.6615 11.6499 45.407 13.3954 45.407 15.5427V32.6712C45.407 34.8168 43.6615 36.564 41.5142 36.564Z" fill="black"/>
    <path d="M27.5016 25.6875C26.6685 25.6875 25.8355 25.4274 25.1239 24.9073L13.0312 16.1735C12.6808 15.9212 12.603 15.4354 12.8553 15.0866C13.106 14.7362 13.5918 14.6584 13.9421 14.9107L26.041 23.6477C26.9177 24.2877 28.0871 24.2877 28.9576 23.6508L41.058 14.9107C41.4068 14.66 41.8926 14.7363 42.1449 15.0851C42.3971 15.4338 42.3177 15.9212 41.9705 16.1719L29.8716 24.9089C29.1646 25.4275 28.3331 25.6875 27.5016 25.6875Z" fill="black"/>
    <path d="M13.4858 33.4495C13.2866 33.4495 13.0872 33.3731 12.9346 33.2221C12.631 32.9185 12.631 32.4248 12.9346 32.1213L20.7203 24.3356C21.0239 24.032 21.5175 24.032 21.8211 24.3356C22.1248 24.6393 22.1248 25.1329 21.8211 25.4365L14.0355 33.2221C13.8844 33.3731 13.6851 33.4495 13.4858 33.4495Z" fill="black"/>
    <path d="M41.5141 33.4495C41.3149 33.4495 41.1155 33.3732 40.9629 33.2222L33.1773 25.4365C32.8737 25.1329 32.8737 24.6392 33.1773 24.3356C33.481 24.032 33.9746 24.032 34.2782 24.3356L42.0638 32.1213C42.3674 32.4249 42.3674 32.9185 42.0638 33.2221C41.9128 33.3732 41.7135 33.4495 41.5141 33.4495Z" fill="black"/>
    <path d="M27.5047 45.9084C27.4564 45.9084 27.4082 45.9084 27.3599 45.9069C25.0725 45.8696 22.9376 44.9431 21.3463 43.2987C18.0623 39.9042 18.1526 34.4729 21.5456 31.1905C23.1899 29.599 25.3917 28.7427 27.6417 28.7815C29.9276 28.8189 32.064 29.7454 33.6553 31.3882C35.2078 32.9936 36.0642 35.1082 36.0642 37.3427C36.0642 37.7725 35.7155 38.1212 35.2857 38.1212C34.8559 38.1212 34.5072 37.7725 34.5072 37.3427C34.5072 35.5146 33.8065 33.7847 32.5342 32.4704C31.2325 31.1267 29.4854 30.3683 27.6137 30.3372C25.7795 30.3372 23.9716 31.0083 22.6262 32.3101C19.8499 34.9962 19.7767 39.4403 22.4643 42.2166C23.766 43.5619 25.5132 44.3203 27.3848 44.3498C29.2627 44.4152 31.0254 43.6803 32.3723 42.3785C32.6806 42.0811 33.1742 42.0873 33.4732 42.3972C33.7721 42.7071 33.7644 43.1991 33.4545 43.4981C31.8459 45.0551 29.7392 45.9084 27.5047 45.9084Z" fill="black"/>
    <path d="M27.5 41.2353C25.3543 41.2353 23.6072 39.4882 23.6072 37.3425C23.6072 35.1968 25.3543 33.4497 27.5 33.4497C29.6457 33.4497 31.3928 35.1952 31.3928 37.3425C31.3928 39.4898 29.6457 41.2353 27.5 41.2353ZM27.5 35.0068C26.2122 35.0068 25.1643 36.0548 25.1643 37.3425C25.1643 38.6303 26.2123 39.6782 27.5 39.6782C28.7877 39.6782 29.8357 38.6302 29.8357 37.3425C29.8357 36.0548 28.7877 35.0068 27.5 35.0068Z" fill="black"/>
    <path d="M32.95 41.2353C31.0004 41.2353 29.8357 39.7794 29.8357 37.3425C29.8357 36.9127 30.1845 36.564 30.6142 36.564C31.044 36.564 31.3928 36.9112 31.3928 37.3425C31.3928 38.8919 31.9175 39.6782 32.9499 39.6782C34.1146 39.6782 34.507 39.088 34.507 37.3425C34.507 36.9127 34.8558 36.564 35.2856 36.564C35.7153 36.564 36.0641 36.9112 36.0641 37.3425C36.0642 38.3048 36.0642 41.2353 32.95 41.2353Z" fill="black"/>
  </g>
  <defs>
    <clipPath id="clip0_156_326">
      <rect width="35.814" height="35.814" fill="white" transform="translate(9.59302 10.8721)"/>
    </clipPath>
  </defs>
</svg>