<svg xmlns:xlink="http://www.w3.org/1999/xlink" xmlns="http://www.w3.org/2000/svg" width="43" height="43" viewBox="0 0 43 43" fill="none">
  <circle cx="21.5" cy="21.5" r="21.5" fill="#233479"/>
  <path d="M28.5217 31H14.4783C13.821 31 13.1906 30.7389 12.7259 30.2741C12.2611 29.8094 12 29.179 12 28.5217V14.4783C12 13.821 12.2611 13.1906 12.7259 12.7259C13.1906 12.2611 13.821 12 14.4783 12H28.5217C29.179 12 29.8094 12.2611 30.2741 12.7259C30.7389 13.1906 31 13.821 31 14.4783V28.5217C31 29.179 30.7389 29.8094 30.2741 30.2741C29.8094 30.7389 29.179 31 28.5217 31ZM18.4393 14.2461C17.3276 14.2474 16.2618 14.6896 15.4757 15.4757C14.6896 16.2618 14.2474 17.3276 14.2461 18.4393V24.5615C14.2474 25.6731 14.6897 26.7388 15.4758 27.5248C16.2619 28.3108 17.3277 28.7528 18.4393 28.7539H24.5615C25.6731 28.7528 26.7389 28.3108 27.525 27.5248C28.3112 26.7388 28.7534 25.6731 28.7547 24.5615V18.4393C28.7534 17.3276 28.3112 16.2618 27.5251 15.4757C26.739 14.6896 25.6732 14.2474 24.5615 14.2461H18.4393ZM24.5615 27.2983H18.4393C17.7148 27.2974 17.0201 27.0093 16.5077 26.497C15.9953 25.9847 15.7069 25.2902 15.7058 24.5656V18.4393C15.7067 17.7146 15.995 17.0199 16.5074 16.5074C17.0199 15.995 17.7146 15.7067 18.4393 15.7058H24.5615C25.2862 15.7067 25.981 15.995 26.4934 16.5074C27.0058 17.0199 27.2941 17.7146 27.295 18.4393V24.5615C27.2939 25.286 27.0055 25.9806 26.4931 26.4929C25.9807 27.0051 25.286 27.2933 24.5615 27.2942V27.2983ZM21.5 17.828C20.7738 17.828 20.0638 18.0434 19.46 18.4469C18.8561 18.8504 18.3855 19.4238 18.1076 20.0948C17.8296 20.7658 17.7569 21.5041 17.8986 22.2164C18.0403 22.9287 18.39 23.5829 18.9035 24.0965C19.4171 24.61 20.0713 24.9597 20.7836 25.1014C21.4959 25.2431 22.2342 25.1704 22.9052 24.8924C23.5762 24.6145 24.1496 24.1439 24.5531 23.54C24.9566 22.9362 25.172 22.2262 25.172 21.5C25.1709 20.5265 24.7836 19.5931 24.0953 18.9047C23.4069 18.2164 22.4735 17.8291 21.5 17.828ZM25.2438 16.7913C25.0602 16.7913 24.8815 16.8503 24.7339 16.9595C24.5864 17.0688 24.4779 17.2226 24.4243 17.3982C24.3708 17.5738 24.3751 17.762 24.4367 17.935C24.4982 18.108 24.6136 18.2566 24.766 18.359C24.9184 18.4614 25.0997 18.5121 25.2831 18.5037C25.4665 18.4953 25.6423 18.4282 25.7847 18.3122C25.9271 18.1963 26.0284 18.0377 26.0738 17.8598C26.1192 17.6819 26.1063 17.4941 26.0369 17.3241C25.973 17.1663 25.8633 17.0312 25.722 16.9362C25.5807 16.8412 25.4141 16.7908 25.2438 16.7913ZM21.5 23.9518C21.0148 23.952 20.5405 23.8083 20.1371 23.5388C19.7336 23.2694 19.4191 22.8863 19.2334 22.4381C19.0476 21.9899 18.999 21.4967 19.0936 21.0209C19.1882 20.545 19.4218 20.1079 19.7649 19.7649C20.1079 19.4218 20.545 19.1882 21.0209 19.0936C21.4967 18.999 21.9899 19.0476 22.4381 19.2334C22.8863 19.4191 23.2694 19.7336 23.5388 20.1371C23.8083 20.5405 23.952 21.0148 23.9518 21.5C23.951 22.15 23.6924 22.7731 23.2327 23.2327C22.7731 23.6924 22.15 23.951 21.5 23.9518Z" fill="#4C71BC"/>
</svg>