<svg xmlns:xlink="http://www.w3.org/1999/xlink" xmlns="http://www.w3.org/2000/svg" width="55" height="55" viewBox="0 0 55 55" fill="none">
  <circle cx="27.5" cy="27.5" r="27.5" fill="white"/>
  <g clip-path="url(#clip0_156_324)">
    <path d="M29.9406 35.3488L29.9157 35.3297L24.4513 35.3291L24.4264 35.3482C20.1354 35.7986 16.9878 37.2759 16.9878 39.029C16.9878 41.1401 21.5508 42.8512 27.1803 42.8512C32.8097 42.8512 37.3728 41.1401 37.3728 39.029C37.3728 37.2765 34.2284 35.7999 29.9406 35.3488Z" fill="#2A4F9A"/>
    <path d="M27.2567 11.5096C32.8861 11.5522 37.4148 16.1497 37.3727 21.7785C37.3371 26.5454 34.501 29.3528 29.9156 35.3301C29.062 36.4423 28.1478 37.6642 27.1802 39.0293C26.2151 37.6628 25.3028 36.441 24.4511 35.3294C19.8072 29.2725 16.9514 26.5091 16.9877 21.6256C17.0304 15.9962 21.6279 11.4675 27.2567 11.5096ZM31.0024 21.7307C31.0183 19.6196 29.32 17.8958 27.2089 17.8799C25.0978 17.864 23.374 19.5623 23.3581 21.6734C23.3422 23.7845 25.0405 25.5083 27.1516 25.5242C29.2627 25.5402 30.9865 23.8419 31.0024 21.7307Z" fill="#638CE0"/>
    <path d="M27.2331 14.6945C27.5848 14.6971 27.8721 14.4142 27.8746 14.0626C27.8772 13.7109 27.5943 13.4236 27.2427 13.4204C26.8904 13.4179 26.6031 13.7014 26.6005 14.053C26.598 14.4047 26.8808 14.692 27.2331 14.6945Z" fill="black"/>
    <path d="M27.2137 17.2428C24.754 17.2253 22.7396 19.2096 22.721 21.6685C22.7025 24.1273 24.6879 26.1427 27.1468 26.1612C27.1582 26.1613 27.1695 26.1613 27.1809 26.1613C29.6241 26.1613 31.6209 24.1829 31.6394 21.7354C31.658 19.2768 29.6726 17.2613 27.2137 17.2428ZM27.1808 24.8873C27.1728 24.8873 27.1644 24.8872 27.1563 24.8872C25.4 24.8739 23.9818 23.4344 23.995 21.6781C24.0082 19.9298 25.4344 18.5167 27.1796 18.5167C27.1877 18.5167 27.1961 18.5167 27.2041 18.5168C28.9605 18.5301 30.3787 19.9696 30.3654 21.7259C30.3522 23.4742 28.926 24.8873 27.1808 24.8873Z" fill="black"/>
    <path d="M29.9597 13.9035C29.6283 13.7859 29.264 13.9595 29.1464 14.2911C29.0289 14.6228 29.2024 14.9868 29.534 15.1044C32.34 16.0989 34.21 18.7714 34.1876 21.7544C34.185 22.1062 34.468 22.3936 34.8198 22.3962C34.8214 22.3962 34.8231 22.3962 34.8248 22.3962C35.1742 22.3962 35.459 22.1142 35.4617 21.764C35.4882 18.2382 33.2771 15.0793 29.9597 13.9035Z" fill="black"/>
    <path d="M38.0097 21.7831C38.0546 15.7795 33.1824 10.8721 27.1792 10.8721C21.2461 10.8721 16.3958 15.6771 16.3507 21.6207C16.3143 26.5217 19.0114 29.3619 23.2778 34.852C19.0335 35.4862 16.3507 37.0799 16.3507 39.0291C16.3507 40.3349 17.5576 41.5066 19.7492 42.3284C21.744 43.0764 24.3831 43.4883 27.1802 43.4883C29.9774 43.4883 32.6165 43.0764 34.6112 42.3284C36.8028 41.5065 38.0097 40.3348 38.0097 39.0291C38.0097 37.0808 35.3293 35.4876 31.0889 34.8529C35.3261 29.3989 37.974 26.5549 38.0097 21.7831ZM36.7357 39.0292C36.7357 40.5328 32.6493 42.2144 27.1802 42.2144C21.7111 42.2144 17.6247 40.5328 17.6247 39.0292C17.6247 37.9141 20.0676 36.5055 24.1751 36.0177C25.083 37.2091 25.8791 38.2914 26.6598 39.3968C26.7791 39.5656 26.9729 39.6661 27.1796 39.6663C27.1798 39.6663 27.18 39.6663 27.1802 39.6663C27.3867 39.6663 27.5804 39.5661 27.6999 39.3976C28.4732 38.3066 29.291 37.1976 30.1912 36.0184C34.295 36.5067 36.7357 37.9148 36.7357 39.0292ZM29.4104 34.942C28.6107 35.984 27.8763 36.9691 27.1812 37.9327C26.4881 36.9685 25.7684 36.0011 24.9567 34.9417C20.2881 28.8527 17.5902 26.2711 17.6247 21.6303C17.6645 16.3856 21.9438 12.1461 27.1793 12.1461C32.4769 12.1461 36.7753 16.4772 36.7357 21.7736C36.7018 26.3051 33.8936 29.0977 29.4104 34.942Z" fill="black"/>
  </g>
  <defs>
    <clipPath id="clip0_156_324">
      <rect width="32.6163" height="32.6163" fill="white" transform="translate(10.8721 10.8721)"/>
    </clipPath>
  </defs>
</svg>