<svg xmlns:xlink="http://www.w3.org/1999/xlink" xmlns="http://www.w3.org/2000/svg" width="55" height="55" viewBox="0 0 55 55" fill="none">
  <circle cx="27.5" cy="27.5" r="27.5" fill="white"/>
  <g clip-path="url(#clip0_156_325)">
    <path d="M36.417 12.7919V41.5681C36.417 42.365 35.7717 43.0103 34.9747 43.0103H19.3852C18.6672 43.0103 18.0723 42.4867 17.9614 41.8C17.9493 41.7248 17.9429 41.6471 17.9429 41.5681V12.7919C17.9429 11.9949 18.5883 11.3496 19.3852 11.3496H34.9747C35.7717 11.3496 36.417 11.9949 36.417 12.7919Z" fill="white"/>
    <path d="M36.417 12.7919V41.5681C36.417 42.365 35.7717 43.0103 34.9748 43.0103H19.3852C18.6673 43.0103 18.0723 42.4867 17.9614 41.8H33.4459C34.2428 41.8 34.8881 41.1546 34.8881 40.3577V12.7919C34.8881 11.9949 34.2428 11.3496 33.4459 11.3496H34.9748C35.7717 11.3496 36.417 11.9949 36.417 12.7919Z" fill="#D1D1D1"/>
    <path d="M36.417 40.7808V41.5681C36.417 42.3651 35.7717 43.0104 34.9747 43.0104H19.3852C18.6672 43.0104 18.0723 42.4867 17.9614 41.8C17.9493 41.7248 17.9429 41.6471 17.9429 41.5681V40.7808H36.417Z" fill="#638CE0"/>
    <path d="M31.9577 11.3496V12.7543C31.9577 13.1849 31.6086 13.5346 31.1773 13.5346H23.1825C22.7513 13.5346 22.4022 13.1849 22.4022 12.7543V11.3496H31.9577Z" fill="#638CE0"/>
    <path d="M31.9578 11.6714V12.7543C31.9578 13.185 31.6087 13.5347 31.1774 13.5347H23.1826C22.7513 13.5347 22.4022 13.185 22.4022 12.7543V12.4518H31.1774C31.6087 12.4518 31.9578 12.102 31.9578 11.6714Z" fill="#4C71BC"/>
    <path d="M36.417 40.7808V41.5681C36.417 42.3651 35.7717 43.0104 34.9748 43.0104H19.3852C18.6673 43.0104 18.0723 42.4867 17.9614 41.8H33.4459C34.0957 41.8 34.6448 41.3707 34.8251 40.7808H36.417Z" fill="#4C71BC"/>
    <path d="M32.6369 31.5454L32.1846 32.2996L32.0247 32.5666C31.8616 32.843 31.5992 33.0456 31.2915 33.1335C30.2729 33.4125 28.0273 33.4692 24.4274 29.8693C20.8282 26.2694 20.8842 24.0239 21.1633 23.0053C21.2512 22.6976 21.4537 22.4345 21.7302 22.272L22.0233 22.0962L22.7514 21.6592C22.9845 21.5197 23.2859 21.5879 23.4368 21.814L25.0645 24.2558C25.2123 24.4775 25.1638 24.7756 24.9536 24.9393L24.2198 25.4706C24.021 25.6235 23.9643 25.8981 24.0853 26.1172C24.3542 26.5994 24.6083 27.1689 25.8671 28.4296C27.1266 29.6903 27.6973 29.9426 28.1796 30.2114C28.3987 30.3325 28.6733 30.2758 28.8262 30.077L29.3575 29.3431C29.5212 29.1329 29.8193 29.0845 30.041 29.2323L32.4828 30.8599C32.7089 31.0109 32.7771 31.3122 32.6369 31.5454Z" fill="#4C71BC"/>
    <path d="M32.6369 31.5454L32.1846 32.2996C31.1666 32.5787 28.9523 32.6067 25.353 29.0068C21.7531 25.4069 21.7442 23.1142 22.0232 22.0962L22.7514 21.6592C22.9845 21.5197 23.2858 21.5879 23.4368 21.814L25.0644 24.2558C25.2122 24.4775 25.1638 24.7756 24.9536 24.9393L24.2197 25.4706C24.021 25.6235 23.9643 25.8981 24.0853 26.1172C24.3542 26.5994 24.6083 27.1689 25.8671 28.4296C27.1265 29.6903 27.6973 29.9426 28.1796 30.2114C28.3987 30.3325 28.6733 30.2758 28.8261 30.077L29.3574 29.3431C29.5212 29.1329 29.8193 29.0845 30.041 29.2323L32.4827 30.8599C32.7089 31.0109 32.7771 31.3122 32.6369 31.5454Z" fill="#638CE0"/>
    <path d="M36.4172 14.6659C36.6812 14.6659 36.895 14.452 36.895 14.1882V12.7918C36.895 11.7333 36.0337 10.8721 34.9752 10.8721H19.3852C18.3267 10.8721 17.4654 11.7333 17.4654 12.7918V41.5686C17.4654 42.6271 18.3267 43.4883 19.3852 43.4883H34.9752C36.0338 43.4883 36.8951 42.6271 36.8951 41.5686V16.4199C36.8951 16.156 36.6812 15.9421 36.4173 15.9421C36.1534 15.9421 35.9395 16.156 35.9395 16.4199V40.3032H23.5211C23.2571 40.3032 23.0433 40.5171 23.0433 40.7809C23.0433 41.0448 23.2571 41.2587 23.5211 41.2587H35.9395V41.5686C35.9395 42.1002 35.5069 42.5328 34.9752 42.5328H19.3852C18.8535 42.5328 18.4209 42.1002 18.4209 41.5686V41.2587H21.317C21.581 41.2587 21.7948 41.0448 21.7948 40.7809C21.7948 40.5171 21.581 40.3032 21.317 40.3032H18.4209V12.7918C18.4209 12.2602 18.8535 11.8276 19.3852 11.8276H21.9247V12.7545C21.9247 13.4482 22.489 14.0125 23.1827 14.0125H31.1777C31.8714 14.0125 32.4358 13.4482 32.4358 12.7545V11.8276H34.9752C35.5069 11.8276 35.9395 12.2602 35.9395 12.7918V14.1882C35.9395 14.452 36.1533 14.6659 36.4172 14.6659ZM31.4802 12.7545C31.4802 12.9213 31.3445 13.057 31.1777 13.057H23.1827C23.0159 13.057 22.8802 12.9213 22.8802 12.7545V11.8276H31.4802V12.7545Z" fill="black"/>
    <path d="M25.2335 25.3267C25.2381 25.3234 25.2426 25.32 25.247 25.3165C25.6521 25.0009 25.7467 24.4189 25.462 23.9909L23.834 21.5488C23.5413 21.1099 22.9579 20.9786 22.5053 21.2499L21.4873 21.8606C21.1039 22.0865 20.8256 22.4467 20.7026 22.8791C20.3156 24.2901 20.5891 26.7067 24.0895 30.2073C26.8591 32.9768 28.95 33.7262 30.4035 33.7262C30.787 33.7262 31.1264 33.6739 31.422 33.5929C31.8501 33.471 32.2102 33.1927 32.4342 32.8125L33.0468 31.7913C33.3182 31.3389 33.1869 30.7552 32.748 30.4626C32.748 30.4626 32.748 30.4626 32.748 30.4626L30.3054 28.8343C29.878 28.55 29.2959 28.6444 28.9802 29.0494C28.9768 29.0538 28.9734 29.0584 28.97 29.0629L28.4458 29.7877C28.4367 29.7973 28.4227 29.7996 28.4118 29.7936C28.3665 29.7684 28.3204 29.7434 28.2732 29.7176C27.8398 29.4819 27.3006 29.1884 26.2053 28.0917C25.1067 26.9917 24.813 26.4527 24.5769 26.0196C24.5518 25.9736 24.5275 25.9289 24.5034 25.8856C24.4969 25.8739 24.4994 25.8597 24.5089 25.8508L25.2335 25.3267ZM23.6678 26.3495C23.691 26.3912 23.7141 26.4335 23.7378 26.477C24.0031 26.9638 24.3334 27.5698 25.5291 28.767C26.7222 29.9617 27.3289 30.2919 27.8163 30.5571C27.8609 30.5813 27.9044 30.605 27.948 30.6292C28.377 30.8668 28.9055 30.7571 29.2046 30.3686C29.2075 30.3649 29.2104 30.361 29.2132 30.3572L29.7362 29.6342C29.7466 29.6235 29.7633 29.6215 29.7757 29.6297L32.2178 31.2577C32.2317 31.267 32.2358 31.2856 32.2272 31.2998L31.6126 32.3244C31.5119 32.4954 31.3513 32.6195 31.1647 32.6727C28.9399 33.2831 26.2002 30.9667 24.7652 29.5317C23.3301 28.0966 21.0137 25.3569 21.6228 23.1363C21.6772 22.9454 21.8013 22.7846 21.9756 22.6819L22.9967 22.0694C23.0018 22.0663 23.0073 22.0648 23.0129 22.0648C23.023 22.0648 23.0329 22.0698 23.0389 22.0788L24.6668 24.5206C24.6752 24.5332 24.6731 24.5501 24.6625 24.5604L23.9395 25.0834C23.9356 25.0862 23.9318 25.089 23.928 25.092C23.5395 25.3912 23.4298 25.9197 23.6678 26.3495Z" fill="black"/>
    <path d="M29.9517 27.4183C29.9517 27.6821 30.1656 27.896 30.4295 27.896C30.6934 27.896 30.9073 27.6821 30.9073 27.4183C30.9073 25.1969 29.1001 23.3896 26.8787 23.3896C26.6147 23.3896 26.4009 23.6036 26.4009 23.8674C26.4009 24.1313 26.6147 24.3452 26.8787 24.3452C28.5731 24.3452 29.9517 25.7238 29.9517 27.4183Z" fill="black"/>
    <path d="M33.7905 27.4182C33.7905 23.607 30.6899 20.5063 26.8787 20.5063C26.6147 20.5063 26.4009 20.7203 26.4009 20.9841C26.4009 21.248 26.6147 21.4619 26.8787 21.4619C30.163 21.4619 32.8349 24.1339 32.8349 27.4182C32.8349 27.6821 33.0488 27.896 33.3127 27.896C33.5767 27.896 33.7905 27.6821 33.7905 27.4182Z" fill="black"/>
  </g>
  <defs>
    <clipPath id="clip0_156_325">
      <rect width="32.6163" height="32.6163" fill="white" transform="translate(10.8721 10.8721)"/>
    </clipPath>
  </defs>
</svg>