<svg xmlns:xlink="http://www.w3.org/1999/xlink" xmlns="http://www.w3.org/2000/svg" width="42" height="45" viewBox="0 0 42 45" fill="none">
  <g clip-path="url(#clip0_273_3717)">
    <path fill-rule="evenodd" clip-rule="evenodd" d="M38.8184 12.8651C40.0886 13.454 40.9108 14.7894 40.9125 16.2662V39.9262C40.9125 41.9679 39.3602 43.6231 37.4454 43.6231H4.16031C3.24075 43.6231 2.35886 43.2336 1.70863 42.5403C1.05841 41.847 0.693115 40.9067 0.693115 39.9262V16.2662C0.693115 14.2245 2.24543 12.5693 4.16031 12.5693H33.3125L38.8184 12.8651Z" fill="white"/>
    <path fill-rule="evenodd" clip-rule="evenodd" d="M38.8184 12.8651L33.3125 12.5693L36.7381 12.8651C38.0083 13.454 38.8305 14.7894 38.8323 16.2662V39.9262C38.8323 41.9679 37.28 43.6231 35.3651 43.6231H37.4454C39.3603 43.6231 40.9126 41.9679 40.9126 39.9262V16.2662C40.9108 14.7894 40.0886 13.454 38.8184 12.8651Z" fill="#C7C7C7"/>
    <path fill-rule="evenodd" clip-rule="evenodd" d="M37.4455 17.3014V39.9262C37.4455 40.3346 37.135 40.6656 36.752 40.6656H4.85384C4.47086 40.6656 4.1604 40.3346 4.1604 39.9262V16.2662C4.1604 15.8579 4.47086 15.5269 4.85384 15.5269H32.4042L35.3651 16.5694L37.4455 17.3014Z" fill="white"/>
    <path fill-rule="evenodd" clip-rule="evenodd" d="M37.4454 17.3013V39.9262C37.4454 40.3345 37.1349 40.6656 36.7519 40.6656H34.6716C35.0546 40.6656 35.3651 40.3345 35.3651 39.9262V16.5693L37.4454 17.3013Z" fill="#E3E3E3"/>
    <path fill-rule="evenodd" clip-rule="evenodd" d="M33.9928 28.1754L32.4346 30.1547C32.0857 30.5988 31.518 30.7711 31.002 30.5895L30.1872 30.3026C29.6715 30.1212 29.3113 29.6235 29.2774 29.0457L29.1242 26.463C29.1137 26.2831 29.1353 26.1027 29.188 25.9314L35.7597 4.6374C35.8695 4.27956 36.1085 3.98309 36.4238 3.81355C36.7391 3.644 37.1047 3.61533 37.4399 3.73389L39.9626 4.62114C40.6597 4.86734 41.0382 5.6689 40.8086 6.41264L34.2376 27.7066C34.1845 27.878 34.1015 28.0371 33.9928 28.1754Z" fill="#638CE0"/>
    <path fill-rule="evenodd" clip-rule="evenodd" d="M39.9626 4.62122L37.4391 3.73397C36.995 3.57786 36.5065 3.68451 36.1556 4.01419L37.8822 4.62122C38.5794 4.86743 38.9579 5.66898 38.7282 6.41273L32.1572 27.7067C32.1042 27.8781 32.0211 28.0372 31.9124 28.1755L30.3543 30.1548C30.3049 30.2089 30.2514 30.2584 30.1941 30.3027L31.0019 30.5866C31.5179 30.7682 32.0856 30.5959 32.4346 30.1518L33.9927 28.1725C34.1014 28.0342 34.1845 27.8751 34.2375 27.7038L40.8086 6.40977C41.0364 5.66693 40.6582 4.86745 39.9626 4.62122Z" fill="#4B6DB4"/>
    <path fill-rule="evenodd" clip-rule="evenodd" d="M40.5867 2.60349L39.9626 4.62494L37.4385 3.73103L38.0626 1.70958C38.2068 1.22127 38.5866 0.85372 39.0564 0.747929C39.5261 0.642139 40.0129 0.814531 40.33 1.19898C40.647 1.58342 40.7452 2.12023 40.5867 2.60349Z" fill="#4B6DB4"/>
    <path fill-rule="evenodd" clip-rule="evenodd" d="M36.5328 11.3362C36.896 11.4649 37.2883 11.2554 37.4093 10.8682L38.3336 7.91067C38.4119 7.65973 38.3587 7.38331 38.194 7.18555C38.0293 6.98779 37.7782 6.89872 37.5353 6.95191C37.2923 7.00509 37.0944 7.19244 37.0161 7.44339L36.0918 10.4009C36.0337 10.5873 36.0476 10.7906 36.1303 10.9661C36.213 11.1416 36.3578 11.2747 36.5328 11.3362Z" fill="black"/>
    <path d="M39.6589 12.5066L41.4674 6.64334C41.7297 5.7847 41.4623 4.84275 40.7975 4.28326L41.2448 2.83482C41.4896 2.09819 41.3417 1.27797 40.8582 0.690666C40.3746 0.103365 39.6309 -0.159174 38.9142 0.00436013C38.1974 0.167894 37.6197 0.73193 37.4038 1.47881L36.9559 2.92946C36.1067 2.95365 35.3641 3.54628 35.103 4.40821L32.8126 11.8301H4.16039C1.86348 11.8325 0.00204932 13.8173 -0.000244141 16.2663V39.9263C0.00204932 42.3754 1.86348 44.3601 4.16039 44.3626H37.4454C39.7423 44.3601 41.6038 42.3754 41.6061 39.9263V16.2663C41.6056 14.7397 40.8704 13.3202 39.6589 12.5066ZM28.5854 29.0893C28.6286 29.8682 29.0652 30.5605 29.7254 30.8971L29.292 32.3019C29.1723 32.6898 29.3702 33.1077 29.7341 33.2353C30.0979 33.3629 30.4898 33.1519 30.6095 32.764L31.0422 31.3592C31.7603 31.5163 32.5009 31.2358 32.9651 30.6309L34.5226 28.6516C34.6884 28.4415 34.815 28.1996 34.8957 27.9388L36.752 21.9255V39.9263H4.85383V16.2663H31.4437L28.5313 25.697C28.4487 25.9586 28.4152 26.235 28.4328 26.5104L28.5854 29.0893ZM38.7207 1.94536C38.7919 1.71528 38.9728 1.54319 39.1953 1.49392C39.4178 1.44465 39.648 1.52569 39.7993 1.70649C39.9506 1.8873 39.9999 2.14042 39.9286 2.3705L39.5258 3.68806L38.7914 3.42928L38.3171 3.26144L38.7207 1.94536ZM36.4205 4.86737C36.4731 4.6968 36.5872 4.55554 36.7376 4.47469C36.8879 4.39384 37.0622 4.38003 37.2221 4.43631L38.2796 4.806L39.7435 5.32356H39.7511C40.0824 5.44416 40.2604 5.8271 40.1498 6.18123L36.8082 17.0109V17.0205L33.5788 27.476C33.5536 27.5573 33.5138 27.6327 33.4616 27.6978L31.9042 29.6778C31.7377 29.8909 31.4656 29.9732 31.2191 29.8849L30.8127 29.7422H30.8092L30.405 29.6002C30.157 29.5141 29.9841 29.2745 29.9695 28.9969L29.8176 26.4157C29.8121 26.3298 29.8227 26.2436 29.8488 26.1621L33.0386 15.816V15.8109L36.4205 4.86737ZM40.2192 39.9263C40.2192 41.5597 38.9773 42.8838 37.4454 42.8838H4.16039C2.62848 42.8838 1.38663 41.5597 1.38663 39.9263V16.2663C1.38663 14.6329 2.62848 13.3088 4.16039 13.3088H32.3563L31.8979 14.7876H4.85383C4.08787 14.7876 3.46695 15.4496 3.46695 16.2663V39.9263C3.46695 40.743 4.08787 41.4051 4.85383 41.4051H36.752C37.5179 41.4051 38.1389 40.743 38.1389 39.9263V17.4308L39.204 13.9787C39.8462 14.541 40.2186 15.3803 40.2192 16.2663V39.9263Z" fill="black"/>
    <path d="M26.3504 31.7933H24.9635C23.7338 31.8873 22.5485 31.2846 21.843 30.2066C21.5883 29.7964 21.1608 29.5459 20.6995 29.5367C20.2525 29.5432 19.8333 29.7694 19.5637 30.1496L17.2941 33.5123C16.0043 32.1311 14.3016 31.2752 12.4816 31.0931V26.6176H13.8685C15.4004 26.6176 16.6422 25.2935 16.6422 23.6601C16.6422 22.0268 15.4004 20.7026 13.8685 20.7026C12.3366 20.7026 11.0947 22.0268 11.0947 23.6601V25.1064C10.5263 25.0966 9.97125 24.9215 9.4894 24.5999C9.21388 24.3195 8.77782 24.3285 8.51272 24.6201C8.24762 24.9117 8.25272 25.3767 8.52414 25.6616C8.65728 25.8036 9.35626 26.4498 11.0947 26.5903V31.0539H9.70784C8.17593 31.0539 6.93408 32.378 6.93408 34.0114C6.93408 35.6448 8.17593 36.9689 9.70784 36.9689C11.2397 36.9689 12.4816 35.6448 12.4816 34.0114V32.58C13.9175 32.7546 15.2566 33.4389 16.2837 34.523C16.5701 34.8564 16.9834 35.0323 17.4064 35.0007C17.8151 34.9724 18.1902 34.7491 18.4271 34.3929L20.6919 31.0265C21.6462 32.524 23.2683 33.3767 24.9635 33.272H26.3504C26.7333 33.272 27.0438 32.941 27.0438 32.5326C27.0438 32.1243 26.7333 31.7933 26.3504 31.7933ZM12.4816 23.6601C12.4816 22.8434 13.1025 22.1814 13.8685 22.1814C14.6344 22.1814 15.2553 22.8434 15.2553 23.6601C15.2553 24.4768 14.6344 25.1389 13.8685 25.1389H12.4816V23.6601ZM11.0947 34.0114C11.0947 34.8281 10.4738 35.4901 9.70784 35.4901C8.94188 35.4901 8.32096 34.8281 8.32096 34.0114C8.32096 33.1947 8.94188 32.5326 9.70784 32.5326H11.0947V34.0114Z" fill="black"/>
    <line x1="0.5" y1="-0.5" x2="20.9604" y2="-0.5" transform="matrix(-0.973159 0.230135 -0.203651 -0.979043 29.7097 33.6079)" stroke="#638CE0" stroke-linecap="round" stroke-dasharray="3 3"/>
  </g>
  <defs>
    <clipPath id="clip0_273_3717">
      <rect width="41.6063" height="44.3625" fill="white" transform="translate(-0.000244141)"/>
    </clipPath>
  </defs>
</svg>