<svg xmlns:xlink="http://www.w3.org/1999/xlink" xmlns="http://www.w3.org/2000/svg" width="112" height="86" viewBox="0 0 112 86" fill="none">
  <g clip-path="url(#clip0_138_107)">
    <path d="M19.7343 61.3164C18.7763 61.3164 17.9988 60.5432 17.9988 59.5906V40.6551C17.9988 39.7025 18.7763 38.9293 19.7343 38.9293C20.6923 38.9293 21.4699 39.7025 21.4699 40.6551V59.5906C21.4699 60.5432 20.6923 61.3164 19.7343 61.3164Z" fill="white"/>
    <path d="M76.6345 61.3164C75.6764 61.3164 74.8989 60.5432 74.8989 59.5906V40.6551C74.8989 39.7025 75.6764 38.9293 76.6345 38.9293C77.5925 38.9293 78.37 39.7025 78.37 40.6551V59.5906C78.37 60.5432 77.5925 61.3164 76.6345 61.3164Z" fill="white"/>
    <path d="M54.3778 80.1046H41.9907C41.0326 80.1046 40.2551 79.3314 40.2551 78.3788V58.0604C40.2551 57.1078 41.0326 56.3346 41.9907 56.3346H54.3778C55.3358 56.3346 56.1133 57.1078 56.1133 58.0604V78.3788C56.1133 79.3314 55.3358 80.1046 54.3778 80.1046ZM43.7262 76.653H52.6422V59.7862H43.7262V76.653Z" fill="white"/>
    <path d="M54.3778 50.9846H41.9907C41.0326 50.9846 40.2551 50.2114 40.2551 49.2588V39.0996C40.2551 38.1469 41.0326 37.3738 41.9907 37.3738H54.3778C55.3358 37.3738 56.1133 38.1469 56.1133 39.0996V49.2588C56.1133 50.2114 55.3358 50.9846 54.3778 50.9846ZM43.7262 47.533H52.6422V40.8254H43.7262V47.533Z" fill="white"/>
    <path d="M85.9368 48.5087C85.5666 48.5087 85.1917 48.3913 84.877 48.1474L48.0975 19.8489L11.6443 48.1428C10.8899 48.7296 9.79768 48.5961 9.20759 47.8437C8.61751 47.0912 8.75173 46.0074 9.50842 45.4206L47.0261 16.303C47.6509 15.8174 48.5279 15.8151 49.1573 16.2984L87.0013 45.4183C87.7603 46.0028 87.8992 47.0866 87.3114 47.8391C86.9689 48.2786 86.4552 48.5087 85.9368 48.5087Z" fill="white"/>
    <path d="M96.7158 37.245C95.8086 37.245 95.045 36.5432 94.9848 35.632C94.9224 34.6816 95.6467 33.8601 96.6047 33.798C99.09 33.6369 101.365 32.5232 103.008 30.6617C104.651 28.8001 105.467 26.4139 105.306 23.9403C105.016 19.5383 101.622 15.9256 97.2295 15.3481C96.3964 15.2399 95.7624 14.5519 95.723 13.7189L95.7184 13.6039C95.7184 13.5832 95.7184 13.5602 95.7161 13.5394C95.5286 10.6631 94.2258 8.03299 92.0483 6.13231C89.8708 4.23163 87.08 3.2882 84.1875 3.47458C78.8536 3.81974 74.6096 7.90413 74.0982 13.1874C74.0427 13.7557 73.7095 14.2597 73.205 14.5358C72.7029 14.8096 72.0943 14.8188 71.5829 14.5588C70.0949 13.8041 68.4219 13.4635 66.7488 13.5694C64.2635 13.7304 61.9888 14.8441 60.3458 16.7057C58.7029 18.5673 57.886 20.9535 58.048 23.4248C58.1105 24.3752 57.3862 25.1966 56.4281 25.2588C55.4701 25.3209 54.6463 24.6007 54.5838 23.648C54.3617 20.2562 55.4817 16.9818 57.7356 14.4277C59.9895 11.8735 63.1111 10.3456 66.522 10.1247C68.0516 10.0257 69.5812 10.2006 71.0344 10.6355C72.5548 4.76318 77.6873 0.437177 83.9607 0.0298888C87.7766 -0.216325 91.4629 1.02855 94.3369 3.53671C96.924 5.79406 98.5762 8.83146 99.0599 12.1841C104.408 13.4934 108.404 18.1439 108.767 23.7147C108.989 27.1065 107.869 30.3809 105.616 32.9351C103.359 35.4893 100.24 37.0172 96.8291 37.2381C96.7898 37.2404 96.7528 37.2427 96.7134 37.2427L96.7158 37.245Z" fill="white"/>
    <path d="M69.9793 22.6563C69.3105 22.6563 68.6719 22.2674 68.3872 21.6185C66.6517 17.6538 68.4844 13.024 72.4715 11.2982C76.4586 9.57244 81.1145 11.3949 82.8501 15.3596C83.2319 16.234 82.8292 17.2511 81.9522 17.6308C81.0729 18.0104 80.0501 17.6101 79.6682 16.738C78.6963 14.5174 76.0907 13.4981 73.8577 14.4645C71.6246 15.431 70.5995 18.022 71.5714 20.2425C71.9532 21.1169 71.5505 22.134 70.6735 22.5136C70.4491 22.6103 70.213 22.6563 69.9816 22.6563H69.9793Z" fill="white"/>
    <path d="M101.496 46.3273C100.228 46.3273 98.9464 46.0236 97.7547 45.3839C96.9124 44.9305 96.5977 43.8836 97.0535 43.0437C97.5094 42.2061 98.5623 41.8931 99.4069 42.3464C100.444 42.9056 101.638 43.0276 102.769 42.6939C103.898 42.3603 104.831 41.6078 105.393 40.5769C105.956 39.5461 106.078 38.3587 105.743 37.2358C105.407 36.1129 104.651 35.1855 103.614 34.6264C102.772 34.1731 102.457 33.1261 102.913 32.2862C103.369 31.4486 104.421 31.1357 105.266 31.589C107.12 32.5853 108.469 34.2421 109.07 36.2486C109.672 38.2575 109.45 40.3767 108.446 42.2176C107.02 44.8362 104.301 46.325 101.496 46.325V46.3273Z" fill="white"/>
    <path d="M86.8786 61.3164C85.9206 61.3164 85.1431 60.5433 85.1431 59.5906V41.3478C85.1431 38.4438 85.9831 35.6204 87.5705 33.1836C87.6052 33.1307 87.6422 33.08 87.6816 33.0317L93.1335 26.3839C93.7398 25.6453 94.832 25.5349 95.5748 26.1377C96.3176 26.7406 96.4287 27.8267 95.8224 28.5654L90.433 35.1372C89.2412 36.9965 88.6141 39.141 88.6141 41.3455V59.5883C88.6141 60.541 87.8366 61.3141 86.8786 61.3141V61.3164Z" fill="white"/>
    <path d="M92.7263 54.8481C90.2526 54.8481 87.927 53.8909 86.1799 52.1513C85.5019 51.4771 85.5019 50.3841 86.1799 49.7099C86.8579 49.0356 87.9571 49.0356 88.6351 49.7099C89.7273 50.796 91.1806 51.3965 92.7287 51.3965C95.9197 51.3965 98.5161 48.8147 98.5161 45.6416C98.5161 44.6889 99.2936 43.9158 100.252 43.9158C101.21 43.9158 101.987 44.6889 101.987 45.6416C101.987 50.7177 97.8334 54.8481 92.7287 54.8481H92.7263Z" fill="white"/>
    <path d="M81.6767 37.9353C81.1028 37.9353 80.5428 37.6523 80.2119 37.1369L76.278 31.0068C75.762 30.2038 76.0003 29.1361 76.808 28.6229C77.6156 28.1098 78.6893 28.3468 79.2053 29.1499L83.1392 35.2799C83.6552 36.083 83.4169 37.1507 82.6093 37.6638C82.32 37.8479 81.996 37.9353 81.6767 37.9353Z" fill="white"/>
    <path d="M79.0433 85.9999H71.3583C70.4003 85.9999 69.6228 85.2268 69.6228 84.2741V68.7604C69.6228 68.2449 69.8542 67.7571 70.2545 67.4281L74.0982 64.2802C74.7392 63.7556 75.6648 63.7556 76.3058 64.2802L80.1494 67.4281C80.5497 67.7548 80.7812 68.2449 80.7812 68.7604V84.2741C80.7812 85.2268 80.0036 85.9999 79.0456 85.9999H79.0433ZM73.0939 82.5484H77.3078V69.5749L75.1997 67.8491L73.0916 69.5749V82.5484H73.0939Z" fill="white"/>
    <path d="M92.3653 85.9999H84.6804C83.7223 85.9999 82.9448 85.2268 82.9448 84.2741V68.7604C82.9448 68.2449 83.1762 67.7571 83.5766 67.4281L87.4202 64.2802C88.0612 63.7556 88.9868 63.7556 89.6278 64.2802L93.4714 67.4281C93.8718 67.7548 94.1032 68.2449 94.1032 68.7604V84.2741C94.1032 85.2268 93.3257 85.9999 92.3676 85.9999H92.3653ZM86.4159 82.5484H90.6298V69.5749L88.5217 67.8491L86.4136 69.5749V82.5484H86.4159Z" fill="white"/>
    <path d="M105.685 85.9999H97.9999C97.0419 85.9999 96.2644 85.2268 96.2644 84.2741V68.7604C96.2644 68.2449 96.4958 67.7571 96.8961 67.4281L100.74 64.2802C101.381 63.7556 102.306 63.7556 102.947 64.2802L106.791 67.4281C107.191 67.7548 107.423 68.2449 107.423 68.7604V84.2741C107.423 85.2268 106.645 85.9999 105.687 85.9999H105.685ZM99.7355 82.5484H103.949V69.5749L101.841 67.8491L99.7332 69.5749V82.5484H99.7355Z" fill="white"/>
    <path d="M12.9841 85.9999H5.29682C4.3388 85.9999 3.56128 85.2268 3.56128 84.2741V68.7604C3.56128 68.2449 3.79268 67.7571 4.19301 67.4281L8.03665 64.2802C8.67764 63.7556 9.60326 63.7556 10.2443 64.2802L14.0879 67.4281C14.4882 67.7548 14.7196 68.2449 14.7196 68.7604V84.2741C14.7196 85.2268 13.9421 85.9999 12.9841 85.9999ZM7.03467 82.5484H11.2486V69.5749L9.14045 67.8491L7.03235 69.5749V82.5484H7.03467Z" fill="white"/>
    <path d="M26.3038 85.9999H18.6188C17.6608 85.9999 16.8833 85.2268 16.8833 84.2741V68.7604C16.8833 68.2449 17.1147 67.7571 17.515 67.4281L21.3587 64.2802C21.9997 63.7556 22.9253 63.7556 23.5663 64.2802L27.4099 67.4281C27.8102 67.7548 28.0416 68.2449 28.0416 68.7604V84.2741C28.0416 85.2268 27.2641 85.9999 26.3061 85.9999H26.3038ZM20.3544 82.5484H24.5683V69.5749L22.4602 67.8491L20.3521 69.5749V82.5484H20.3544Z" fill="white"/>
    <path d="M30.6612 85.9816H1.73554C0.777521 85.9816 0 85.2085 0 84.2558C0 83.3032 0.777521 82.53 1.73554 82.53H30.6612C31.6192 82.53 32.3967 83.3032 32.3967 84.2558C32.3967 85.2085 31.6192 85.9816 30.6612 85.9816Z" fill="white"/>
    <path d="M110.265 85.9816H65.372C64.414 85.9816 63.6365 85.2085 63.6365 84.2558C63.6365 83.3032 64.414 82.53 65.372 82.53H110.265C111.223 82.53 112 83.3032 112 84.2558C112 85.2085 111.223 85.9816 110.265 85.9816Z" fill="white"/>
  </g>
  <defs>
    <clipPath id="clip0_138_107">
      <rect width="112" height="86" fill="white"/>
    </clipPath>
  </defs>
</svg>