<svg xmlns:xlink="http://www.w3.org/1999/xlink" xmlns="http://www.w3.org/2000/svg" width="37" height="40" viewBox="0 0 37 40" fill="none">
  <path d="M0.602051 3.33008H35.4835V39.2931H0.602051V3.33008Z" fill="#FEFBFB"/>
  <path d="M3.00781 25.3076H9.02186V30.6355H3.00781V25.3076Z" fill="#80DAFF"/>
  <path d="M9.02173 25.3076H15.0358V30.6355H9.02173V25.3076Z" fill="#638CE0"/>
  <path d="M15.0359 25.3076H33.078V30.6355H15.0359V25.3076Z" fill="#638CE0"/>
  <path d="M21.0498 19.9795H27.0638V25.3073H21.0498V19.9795Z" fill="#638CE0"/>
  <path d="M0.602051 3.33008H35.4835V8.65793H0.602051V3.33008Z" fill="#233479"/>
  <path d="M36.0849 35.2971H34.8821V3.99602H33.0779V2.66406H35.4835C35.643 2.66406 35.796 2.73423 35.9088 2.85912C36.0215 2.98402 36.0849 3.15341 36.0849 3.33004V35.2971Z" fill="black"/>
  <path d="M18.3434 0.666016H17.742C16.9117 0.666016 16.2385 1.41144 16.2385 2.33097V4.32891C16.2385 5.24844 16.9117 5.99386 17.742 5.99386H18.3434C19.1738 5.99386 19.847 5.24844 19.847 4.32891V2.33097C19.847 1.41144 19.1738 0.666016 18.3434 0.666016Z" fill="#638CE0"/>
  <path d="M31.5744 0.666016H30.973C30.1426 0.666016 29.4695 1.41144 29.4695 2.33097V4.32891C29.4695 5.24844 30.1426 5.99386 30.973 5.99386H31.5744C32.4048 5.99386 33.0779 5.24844 33.0779 4.32891V2.33097C33.0779 1.41144 32.4048 0.666016 31.5744 0.666016Z" fill="#638CE0"/>
  <path d="M24.9589 0.666016H24.3575C23.5271 0.666016 22.854 1.41144 22.854 2.33097V4.32891C22.854 5.24844 23.5271 5.99386 24.3575 5.99386H24.9589C25.7893 5.99386 26.4624 5.24844 26.4624 4.32891V2.33097C26.4624 1.41144 25.7893 0.666016 24.9589 0.666016Z" fill="#638CE0"/>
  <path d="M11.7282 0.666016H11.1268C10.2964 0.666016 9.62329 1.41144 9.62329 2.33097V4.32891C9.62329 5.24844 10.2964 5.99386 11.1268 5.99386H11.7282C12.5586 5.99386 13.2317 5.24844 13.2317 4.32891V2.33097C13.2317 1.41144 12.5586 0.666016 11.7282 0.666016Z" fill="#638CE0"/>
  <path d="M5.11273 0.666016H4.51132C3.68096 0.666016 3.00781 1.41144 3.00781 2.33097V4.32891C3.00781 5.24844 3.68096 5.99386 4.51132 5.99386H5.11273C5.94309 5.99386 6.61624 5.24844 6.61624 4.32891V2.33097C6.61624 1.41144 5.94309 0.666016 5.11273 0.666016Z" fill="#638CE0"/>
  <path d="M3.00781 14.6514H9.02186V19.9792H3.00781V14.6514Z" fill="#80DAFF"/>
  <path d="M9.02173 14.6514H15.0358V19.9792H9.02173V14.6514Z" fill="#638CE0"/>
  <path d="M3.00781 19.9795H21.0499V25.3073H3.00781V19.9795Z" fill="#638CE0"/>
  <path d="M15.0359 14.6514H33.078V19.9792H15.0359V14.6514Z" fill="#638CE0"/>
  <path d="M27.064 19.9795H33.078V25.3073H27.064V19.9795Z" fill="#80DAFF"/>
  <path d="M21.0498 30.6348H27.0638V35.9626H21.0498V30.6348Z" fill="#638CE0"/>
  <path d="M3.00781 30.6348H21.0499V35.9626H3.00781V30.6348Z" fill="#638CE0"/>
  <path d="M27.064 30.6348H33.078V35.9626H27.064V30.6348Z" fill="#80DAFF"/>
  <path d="M1.2033 9.32373H35.4833V7.99177H1.2033V3.99589H2.40611V4.32888C2.40673 4.94687 2.6287 5.53935 3.02331 5.97633C3.41792 6.41332 3.95296 6.65912 4.51102 6.65981H5.11243C5.67049 6.65912 6.20552 6.41332 6.60014 5.97633C6.99475 5.53935 7.21672 4.94687 7.21734 4.32888V3.99589H9.02155V4.32888C9.02218 4.94687 9.24415 5.53935 9.63876 5.97633C10.0334 6.41332 10.5684 6.65912 11.1265 6.65981H11.7279C12.2859 6.65912 12.821 6.41332 13.2156 5.97633C13.6102 5.53935 13.8322 4.94687 13.8328 4.32888V3.99589H15.637V4.32888C15.6376 4.94687 15.8596 5.53935 16.2542 5.97633C16.6488 6.41332 17.1839 6.65912 17.7419 6.65981H18.3433C18.9014 6.65912 19.4364 6.41332 19.831 5.97633C20.2256 5.53935 20.4476 4.94687 20.4482 4.32888V3.99589H22.2525V4.32888C22.2531 4.94687 22.475 5.53935 22.8697 5.97633C23.2643 6.41332 23.7993 6.65912 24.3574 6.65981H24.9588C25.5168 6.65912 26.0519 6.41332 26.4465 5.97633C26.8411 5.53935 27.0631 4.94687 27.0637 4.32888V3.99589H28.8679V4.32888C28.8685 4.94687 29.0905 5.53935 29.4851 5.97633C29.8797 6.41332 30.4147 6.65912 30.9728 6.65981H31.5742C32.1323 6.65912 32.6673 6.41332 33.0619 5.97633C33.4565 5.53935 33.6785 4.94687 33.6791 4.32888V2.33093C33.6785 1.71294 33.4565 1.12046 33.0619 0.683479C32.6673 0.246494 32.1323 0.000691868 31.5742 0H30.9728C30.4147 0.000691868 29.8797 0.246494 29.4851 0.683479C29.0905 1.12046 28.8685 1.71294 28.8679 2.33093V2.66392H27.0637V2.33093C27.0631 1.71294 26.8411 1.12046 26.4465 0.683479C26.0519 0.246494 25.5168 0.000691868 24.9588 0H24.3574C23.7993 0.000691868 23.2643 0.246494 22.8697 0.683479C22.475 1.12046 22.2531 1.71294 22.2525 2.33093V2.66392H20.4482V2.33093C20.4476 1.71294 20.2256 1.12046 19.831 0.683479C19.4364 0.246494 18.9014 0.000691868 18.3433 0H17.7419C17.1839 0.000691868 16.6488 0.246494 16.2542 0.683479C15.8596 1.12046 15.6376 1.71294 15.637 2.33093V2.66392H13.8328V2.33093C13.8322 1.71294 13.6102 1.12046 13.2156 0.683479C12.821 0.246494 12.2859 0.000691868 11.7279 0H11.1265C10.5684 0.000691868 10.0334 0.246494 9.63876 0.683479C9.24415 1.12046 9.02218 1.71294 9.02155 2.33093V2.66392H7.21734V2.33093C7.21672 1.71294 6.99475 1.12046 6.60014 0.683479C6.20552 0.246494 5.67049 0.000691868 5.11243 0H4.51102C3.95296 0.000691868 3.41792 0.246494 3.02331 0.683479C2.6287 1.12046 2.40673 1.71294 2.40611 2.33093V2.66392H0.601893C0.44239 2.66392 0.289421 2.73409 0.176636 2.85899C0.0638503 2.98388 0.000488281 3.15328 0.000488281 3.32991V11.3217H1.2033V9.32373ZM30.0707 2.33093C30.071 2.06608 30.1661 1.81216 30.3352 1.62488C30.5043 1.4376 30.7336 1.33226 30.9728 1.33196H31.5742C31.8134 1.33226 32.0427 1.4376 32.2118 1.62488C32.3809 1.81216 32.4761 2.06608 32.4763 2.33093V4.32888C32.4761 4.59373 32.3809 4.84765 32.2118 5.03493C32.0427 5.22221 31.8134 5.32755 31.5742 5.32785H30.9728C30.7336 5.32755 30.5043 5.22221 30.3352 5.03493C30.1661 4.84765 30.071 4.59373 30.0707 4.32888V2.33093ZM23.4553 2.33093C23.4555 2.06608 23.5507 1.81216 23.7198 1.62488C23.8889 1.4376 24.1182 1.33226 24.3574 1.33196H24.9588C25.1979 1.33226 25.4272 1.4376 25.5964 1.62488C25.7655 1.81216 25.8606 2.06608 25.8609 2.33093V4.32888C25.8606 4.59373 25.7655 4.84765 25.5964 5.03493C25.4272 5.22221 25.1979 5.32755 24.9588 5.32785H24.3574C24.1182 5.32755 23.8889 5.22221 23.7198 5.03493C23.5507 4.84765 23.4555 4.59373 23.4553 4.32888V2.33093ZM16.8398 2.33093C16.8401 2.06608 16.9352 1.81216 17.1043 1.62488C17.2734 1.4376 17.5027 1.33226 17.7419 1.33196H18.3433C18.5825 1.33226 18.8118 1.4376 18.9809 1.62488C19.15 1.81216 19.2452 2.06608 19.2454 2.33093V4.32888C19.2452 4.59373 19.15 4.84765 18.9809 5.03493C18.8118 5.22221 18.5825 5.32755 18.3433 5.32785H17.7419C17.5027 5.32755 17.2734 5.22221 17.1043 5.03493C16.9352 4.84765 16.8401 4.59373 16.8398 4.32888V2.33093ZM10.2244 2.33093C10.2246 2.06608 10.3198 1.81216 10.4889 1.62488C10.658 1.4376 10.8873 1.33226 11.1265 1.33196H11.7279C11.967 1.33226 12.1963 1.4376 12.3655 1.62488C12.5346 1.81216 12.6297 2.06608 12.63 2.33093V4.32888C12.6297 4.59373 12.5346 4.84765 12.3655 5.03493C12.1963 5.22221 11.967 5.32755 11.7279 5.32785H11.1265C10.8873 5.32755 10.658 5.22221 10.4889 5.03493C10.3198 4.84765 10.2246 4.59373 10.2244 4.32888V2.33093ZM3.60891 2.33093C3.60918 2.06608 3.70431 1.81216 3.87343 1.62488C4.04255 1.4376 4.27185 1.33226 4.51102 1.33196H5.11243C5.3516 1.33226 5.5809 1.4376 5.75002 1.62488C5.91914 1.81216 6.01427 2.06608 6.01453 2.33093V4.32888C6.01427 4.59373 5.91914 4.84765 5.75002 5.03493C5.5809 5.22221 5.3516 5.32755 5.11243 5.32785H4.51102C4.27185 5.32755 4.04255 5.22221 3.87343 5.03493C3.70431 4.84765 3.60918 4.59373 3.60891 4.32888V2.33093Z" fill="black"/>
  <path d="M34.8819 36.6286V38.6266H1.2033V12.6533H0.000488281V39.2926C0.000488281 39.4692 0.0638503 39.6386 0.176636 39.7635C0.289421 39.8884 0.44239 39.9585 0.601893 39.9585H35.4833C35.6429 39.9585 35.7958 39.8884 35.9086 39.7635C36.0214 39.6386 36.0848 39.4692 36.0848 39.2926V36.6286H34.8819Z" fill="black"/>
  <path d="M2.40625 14.6513V35.9627C2.40625 36.1394 2.46961 36.3088 2.5824 36.4336C2.69518 36.5585 2.84815 36.6287 3.00765 36.6287H33.0779C33.2374 36.6287 33.3904 36.5585 33.5031 36.4336C33.6159 36.3088 33.6793 36.1394 33.6793 35.9627V14.6513C33.6793 14.4747 33.6159 14.3053 33.5031 14.1804C33.3904 14.0555 33.2374 13.9854 33.0779 13.9854H3.00765C2.84815 13.9854 2.69518 14.0555 2.5824 14.1804C2.46961 14.3053 2.40625 14.4747 2.40625 14.6513ZM20.4484 20.6452V24.641H3.60906V20.6452H20.4484ZM26.4624 20.6452V24.641H21.6512V20.6452H26.4624ZM15.6371 29.9689V25.973H32.4765V29.9689H15.6371ZM9.6231 29.9689V25.973H14.4343V29.9689H9.6231ZM3.60906 29.9689V25.973H8.42029V29.9689H3.60906ZM32.4765 24.641H27.6652V20.6452H32.4765V24.641ZM3.60906 31.3009H20.4484V35.2967H3.60906V31.3009ZM21.6512 31.3009H26.4624V35.2967H21.6512V31.3009ZM32.4765 35.2967H27.6652V31.3009H32.4765V35.2967ZM32.4765 19.3132H15.6371V15.3173H32.4765V19.3132ZM14.4343 19.3132H9.6231V15.3173H14.4343V19.3132ZM3.60906 15.3173H8.42029V19.3132H3.60906V15.3173Z" fill="black"/>
  <path d="M16.8401 16.6494H19.8471V17.9814H16.8401V16.6494Z" fill="black"/>
  <path d="M21.0498 16.6494H31.2737V17.9814H21.0498V16.6494Z" fill="black"/>
  <path d="M16.8401 27.3057H19.8471V28.6376H16.8401V27.3057Z" fill="black"/>
  <path d="M21.0498 27.3057H31.2737V28.6376H21.0498V27.3057Z" fill="black"/>
  <path d="M4.8125 21.9775H15.0364V23.3095H4.8125V21.9775Z" fill="black"/>
  <path d="M16.2385 21.9775H19.2455V23.3095H16.2385V21.9775Z" fill="black"/>
  <path d="M4.8125 32.6328H15.0364V33.9648H4.8125V32.6328Z" fill="black"/>
  <path d="M16.2385 32.6328H19.2455V33.9648H16.2385V32.6328Z" fill="black"/>
  <path d="M5.41333 11.3213H6.61523V12.6533H5.41333V11.3213Z" fill="black"/>
  <path d="M11.428 11.3213H12.6299V12.6533H11.428V11.3213Z" fill="black"/>
  <path d="M17.4414 11.3213H18.6433V12.6533H17.4414V11.3213Z" fill="black"/>
  <path d="M23.4561 11.3213H24.658V12.6533H23.4561V11.3213Z" fill="black"/>
  <path d="M29.4695 11.3213H30.6714V12.6533H29.4695V11.3213Z" fill="black"/>
</svg>