<svg xmlns:xlink="http://www.w3.org/1999/xlink" xmlns="http://www.w3.org/2000/svg" width="236" height="100" viewBox="0 0 236 100" fill="none">
  <path d="M118.654 65.6385C115.645 70.4457 89.257 106.124 84.6275 98.4783C83.528 97.0883 83.7594 94.8294 85.2062 93.7869C93.8865 86.605 101.062 77.7435 108.122 68.9978C104.245 70.0403 97.9373 73.0521 95.7962 67.8973C90.7616 70.0982 84.5117 73.5733 79.1878 70.6774C74.9634 74.5 64.2576 85.3887 60.8434 75.7742C36.0755 94.1923 48.1122 74.9634 41.573 65.986C35.5547 62.6267 28.6104 69.7507 22.3027 68.0711C15.4742 63.4376 25.6591 58.3407 28.8997 55.0973C39.837 45.1353 67.4983 22.0258 66.2252 6.85115C49.6747 10.3263 38.5639 26.6014 28.8997 39.4593C17.326 55.2131 14.4904 74.1525 6.62023 91.586C5.57859 94.2502 1.4699 94.3082 0.428257 91.586C-0.844858 88.748 1.06482 85.8521 1.70137 83.072C5.17351 70.3299 11.597 58.7462 15.4163 46.1778C17.3838 42.0656 22.1291 17.624 28.4947 28.5706C72.8222 -26.9154 98.7475 6.73531 34.976 58.8041C45.103 55.7344 51.3529 65.5806 50.6006 74.6738C59.223 68.824 67.8455 63.0901 75.4263 55.9661C78.667 52.7226 83.4701 58.1091 79.8822 61.005C81.9076 61.0629 83.4122 63.0901 83.0071 65.0014C89.1413 66.3335 100.831 53.3018 103.146 63.4955C107.775 62.5688 120.333 56.0819 118.654 65.6385Z" fill="white"/>
  <path d="M129.765 63.6113C129.302 66.623 128.608 72.2411 124.325 71.2565C122.589 70.7932 121.548 68.9398 121.953 67.2022C119.696 68.7081 117.381 72.0674 114.314 70.6773C112.81 70.0402 111.884 68.2448 112.404 66.681C113.504 64.0746 115.414 59.9624 118.886 61.1208C122.705 57.8194 129.707 56.719 129.765 63.6113Z" fill="white"/>
  <path d="M161.825 8.12545C161.072 8.12545 160.32 7.83586 159.741 7.43043C153.26 10.3264 136.015 21.5626 137.172 29.4395C140.413 34.073 147.415 33.3779 151.871 36.4476C165.355 45.5408 147.994 59.2096 139.603 64.596C133.932 68.5924 128.319 72.7046 122.589 76.5273C118.828 78.7282 115.414 72.9942 119.175 70.7354C124.557 67.0865 129.823 63.206 135.147 59.4992C138.446 57.1245 156.096 45.4829 147.705 41.7761C142.091 39.2856 134.8 38.8223 131.501 32.9725C124.846 20.5779 148.225 4.88201 158.005 0.885634C164.892 -2.01029 168.132 7.19876 161.825 8.12545Z" fill="white"/>
  <path d="M232.772 53.7072C226.638 55.271 220.446 56.0239 214.138 55.7343C210.492 56.3135 206.962 58.9777 203.201 58.1669C201.175 57.6456 200.192 55.271 201.118 53.4176C200.828 53.3017 200.481 53.1859 200.192 53.0121C199.96 52.8963 199.729 52.7225 199.555 52.5488C195.157 54.6339 178.491 65.2909 175.192 60.1361C174.208 59.9044 173.283 59.2673 172.762 58.3406C172.241 57.4139 172.183 56.3714 172.53 55.3868C169.347 57.7035 166.454 60.3678 163.561 63.032C161.477 65.4067 156.848 67.9551 154.996 64.0167C148.515 67.2022 141.339 63.6112 146.026 56.1977C148.341 51.8538 162.345 38.3587 166.396 45.3669C174.498 35.4049 181.789 23.937 193.189 17.4501C195.446 16.2918 198.745 16.7551 199.844 19.2456C201.465 25.7904 192.842 36.0999 188.56 40.7334C189.717 40.9072 190.643 41.6022 191.222 42.6447C194.52 40.7913 201.06 37.7796 202.391 43.3397C203.548 42.8185 204.648 42.1814 205.863 41.9497C208.409 41.4863 210.55 44.4981 209.335 46.7569C211.939 46.699 215.932 45.5986 216.742 49.0737C219.809 49.3054 222.818 48.9578 225.828 48.3787C228.316 48.147 231.094 46.5253 233.524 47.6836C236.07 48.8999 235.607 53.0701 232.772 53.7072ZM190.412 27.7017C185.898 31.6981 181.963 36.3316 178.259 41.1388C182.889 37.2583 187.171 32.8565 190.412 27.7017ZM161.13 52.0854C161.593 51.5063 162.056 50.8692 162.577 50.29C159.163 52.0275 156.038 54.518 153.491 57.356C156.327 55.966 159.452 54.8655 161.13 52.0854Z" fill="white"/>
</svg>