<?xml version="1.0" encoding="UTF-8"?>
<svg xmlns="http://www.w3.org/2000/svg" id="b" viewBox="0 0 460.54 177.37">
  <defs>
    <style>.e{fill:#fff;stroke:#fff;stroke-miterlimit:10;}</style>
  </defs>
  <g id="c">
    <g>
      <path id="d" class="e" d="m148.4.5v5.79h-21.7v60.5h-6V6.29h-21.7V.5h49.4Zm20.76,17.46v5.79c-3.95.12-7.38,1.31-10.29,3.55-2.92,2.24-4.97,5.32-6.18,9.24h0v30.25h-5.83V18.15h5.49v11.67c1.66-3.73,3.89-6.66,6.69-8.78s5.8-3.17,9.01-3.17h0c.46,0,.83.03,1.11.09h0Zm21.78,49.77h0c-4.86,0-8.48-1.76-10.85-5.28-2.37-3.52-3.56-8.76-3.56-15.73h0v-28.57h5.83v27.45c0,11.02,3.46,16.53,10.38,16.53h0c1.72,0,3.4-.31,5.06-.93,1.66-.62,3.19-1.53,4.59-2.71,1.4-1.18,2.66-2.58,3.77-4.2,1.11-1.62,2.02-3.45,2.7-5.51h0v-30.63h5.83v40.43c0,1.74.69,2.61,2.06,2.61h0v5.6c-.69.12-1.24.19-1.67.19h-.9c-1.37-.06-2.49-.59-3.34-1.59-.86-1-1.29-2.33-1.29-4.01h0v-5.6c-1.94,3.8-4.59,6.74-7.93,8.82-3.34,2.09-6.9,3.13-10.68,3.13Zm51.8,0h0c-3.49,0-6.89-.62-10.21-1.87-3.32-1.24-6.18-3.05-8.58-5.42h0l2.66-4.3c2.52,2.24,5.07,3.92,7.68,5.04s5.39,1.68,8.36,1.68h0c3.6,0,6.48-.79,8.62-2.38,2.14-1.59,3.22-3.84,3.22-6.77h0c0-1.37-.29-2.51-.86-3.41-.57-.9-1.42-1.7-2.53-2.38-1.11-.68-2.52-1.29-4.2-1.82-1.69-.53-3.65-1.07-5.87-1.63h0c-2.57-.68-4.8-1.37-6.69-2.05s-3.44-1.46-4.67-2.33c-1.23-.87-2.14-1.95-2.74-3.22-.6-1.28-.9-2.88-.9-4.81h0c0-2.43.44-4.58,1.33-6.44.89-1.87,2.09-3.41,3.6-4.62,1.52-1.21,3.29-2.13,5.32-2.75s4.19-.93,6.48-.93h0c3.43,0,6.55.61,9.35,1.82,2.8,1.21,5.06,2.82,6.78,4.81h0l-2.83,3.73c-1.66-1.87-3.67-3.27-6.05-4.2-2.37-.93-4.85-1.4-7.42-1.4h0c-1.54,0-2.97.17-4.29.51s-2.47.89-3.47,1.63c-1,.75-1.79,1.7-2.36,2.85-.57,1.15-.86,2.51-.86,4.06h0c0,1.31.2,2.37.6,3.17.4.81,1.06,1.51,1.97,2.1.91.59,2.07,1.12,3.47,1.59s3.1.95,5.1,1.45h0c2.86.75,5.37,1.49,7.55,2.24,2.17.75,3.99,1.62,5.45,2.61,1.46,1,2.56,2.21,3.3,3.64.74,1.43,1.11,3.17,1.11,5.23h0c0,4.48-1.57,8.03-4.72,10.64-3.14,2.61-7.38,3.92-12.69,3.92Zm46.83-8.4l1.54,5.14c-.34.19-.84.44-1.5.75-.66.31-1.42.62-2.27.93-.86.31-1.83.59-2.92.84-1.09.25-2.23.37-3.43.37h0c-1.26,0-2.46-.19-3.6-.56-1.14-.37-2.14-.95-3-1.73-.86-.78-1.54-1.76-2.06-2.94-.51-1.18-.77-2.55-.77-4.11h0V23.19h-6.18v-5.04h6.18V1.71h5.83v16.43h10.29v5.04h-10.29v33.05c.11,1.81.7,3.13,1.76,3.97,1.06.84,2.27,1.26,3.65,1.26h0c1.66,0,3.12-.3,4.37-.89,1.26-.59,2.06-1.01,2.4-1.26h0Z"></path>
      <path class="e" d="m104.39,143h-5.39v-64.09h23.11c2.36,0,4.54.59,6.52,1.77,1.98,1.17,3.69,2.7,5.12,4.59,1.43,1.91,2.55,4.06,3.35,6.47.79,2.41,1.19,4.84,1.19,7.3h0c0,2.36-.29,4.6-.88,6.73s-1.41,4.06-2.47,5.77c-1.05,1.72-2.32,3.17-3.8,4.34-1.49,1.17-3.16,1.96-5.01,2.39h0l13.4,24.73h-6.08l-12.87-23.66h-16.18v23.66Zm0-58.48v29.24h17.88c1.59,0,3.04-.41,4.35-1.22,1.31-.81,2.42-1.91,3.35-3.29.92-1.39,1.64-2.96,2.15-4.7s.77-3.58.77-5.51h0c0-1.92-.29-3.77-.88-5.55-.59-1.77-1.39-3.32-2.39-4.64-1-1.33-2.18-2.38-3.55-3.16-1.36-.78-2.78-1.17-4.27-1.17h-17.41Zm59.79,59.38h0c-2.93,0-5.61-.65-8.03-1.94-2.41-1.29-4.5-3.05-6.28-5.28-1.77-2.23-3.14-4.82-4.12-7.77-.97-2.95-1.46-6.04-1.46-9.29h0c0-3.31.5-6.44,1.51-9.38,1-2.96,2.38-5.55,4.16-7.77,1.78-2.23,3.87-4.01,6.28-5.32,2.42-1.33,5.07-1.99,7.95-1.99h0c2.87,0,5.52.66,7.96,1.99,2.44,1.32,4.55,3.09,6.32,5.32,1.78,2.22,3.16,4.81,4.16,7.77,1.01,2.95,1.51,6.07,1.51,9.38h0c0,3.25-.49,6.34-1.46,9.29-.98,2.95-2.36,5.53-4.12,7.77-1.78,2.23-3.88,3.99-6.32,5.28s-5.12,1.94-8.04,1.94Zm-14.57-24.18h0c0,2.65.39,5.1,1.16,7.35.77,2.26,1.81,4.24,3.13,5.96,1.31,1.7,2.85,3.04,4.62,4.01,1.77.97,3.65,1.45,5.67,1.45h0c2,0,3.88-.5,5.65-1.49,1.78-.99,3.33-2.34,4.67-4.06,1.34-1.72,2.39-3.72,3.16-6,.77-2.29,1.16-4.76,1.16-7.41h0c0-2.58-.39-5.03-1.16-7.35-.77-2.32-1.82-4.34-3.16-6.06-1.34-1.72-2.89-3.07-4.67-4.06-1.77-.99-3.65-1.49-5.65-1.49h0c-2.01,0-3.89.5-5.63,1.49-1.74.99-3.28,2.36-4.62,4.12-1.34,1.74-2.39,3.77-3.16,6.09-.77,2.31-1.16,4.79-1.16,7.45Zm60.41,24.18h0c-2.93,0-5.61-.65-8.03-1.94-2.41-1.29-4.5-3.05-6.28-5.28-1.77-2.23-3.14-4.82-4.12-7.77-.97-2.95-1.46-6.04-1.46-9.29h0c0-3.31.5-6.44,1.51-9.38,1-2.96,2.38-5.55,4.16-7.77,1.78-2.23,3.87-4.01,6.28-5.32,2.42-1.33,5.07-1.99,7.95-1.99h0c2.87,0,5.52.66,7.96,1.99,2.44,1.32,4.55,3.09,6.32,5.32,1.78,2.22,3.16,4.81,4.16,7.77,1.01,2.95,1.51,6.07,1.51,9.38h0c0,3.25-.49,6.34-1.46,9.29-.98,2.95-2.36,5.53-4.12,7.77-1.78,2.23-3.88,3.99-6.32,5.28-2.44,1.29-5.12,1.94-8.04,1.94Zm-14.57-24.18h0c0,2.65.39,5.1,1.16,7.35.77,2.26,1.81,4.24,3.13,5.96,1.31,1.7,2.85,3.04,4.62,4.01,1.77.97,3.65,1.45,5.67,1.45h0c2,0,3.88-.5,5.65-1.49,1.78-.99,3.33-2.34,4.67-4.06,1.34-1.72,2.39-3.72,3.16-6,.77-2.29,1.16-4.76,1.16-7.41h0c0-2.58-.39-5.03-1.16-7.35-.77-2.32-1.82-4.34-3.16-6.06-1.34-1.72-2.89-3.07-4.67-4.06-1.77-.99-3.65-1.49-5.65-1.49h0c-2.01,0-3.89.5-5.63,1.49-1.74.99-3.29,2.36-4.62,4.12-1.34,1.74-2.39,3.77-3.16,6.09-.77,2.31-1.16,4.79-1.16,7.45Zm49.85,23.28h-5.23v-42.16h-5.55v-4.87h5.55v-1.26c0-5.78,1.05-10.3,3.16-13.58,2.11-3.28,4.98-4.93,8.62-4.93h0c1.59,0,3.14.27,4.62.81,1.5.54,2.78,1.26,3.85,2.16h0l-1.61,4.44c-.73-.66-1.62-1.18-2.66-1.54-1.05-.36-2.11-.55-3.19-.55h0c-2.47,0-4.35,1.12-5.63,3.35-1.28,2.22-1.93,5.43-1.93,9.65h0v1.45h11.11v4.87h-11.11v42.16Zm23.5,0h-5.23v-47.03h5.23v47.03Zm0-56.87h-5.23v-9.03h5.23v9.03Zm45.3,29.34v27.53h-5.23v-26.27c0-5.59-.71-9.65-2.12-12.19-1.41-2.52-3.58-3.78-6.52-3.78h0c-1.54,0-3.08.33-4.62.98-1.54.66-2.96,1.6-4.27,2.8-1.31,1.2-2.47,2.63-3.5,4.29-1.03,1.65-1.78,3.45-2.25,5.38h0v28.79h-5.23v-47.03h4.78v10.66c1.64-3.43,3.99-6.21,7.05-8.31,3.05-2.11,6.37-3.16,9.97-3.16h0c2.21,0,4.09.48,5.63,1.45,1.54.97,2.77,2.32,3.69,4.06.93,1.74,1.6,3.88,2.01,6.41.41,2.52.61,5.32.61,8.39h0Zm27.28,28.17h0c-2.77,0-5.3-.68-7.59-2.03-2.28-1.35-4.25-3.15-5.92-5.38-1.67-2.23-2.97-4.79-3.9-7.67-.92-2.88-1.38-5.86-1.38-8.93h0c0-3.25.45-6.36,1.35-9.35.9-2.98,2.17-5.58,3.82-7.8,1.64-2.23,3.6-4.01,5.89-5.32,2.28-1.33,4.81-1.99,7.59-1.99h0c3.43,0,6.41,1.01,8.92,3.03,2.53,2.02,4.69,4.56,6.48,7.62h0v-9.83h4.69v47.22c0,3.25-.52,6.12-1.57,8.61-1.05,2.49-2.46,4.59-4.24,6.28-1.78,1.68-3.86,2.94-6.24,3.78-2.39.84-4.92,1.26-7.59,1.26h0c-4.62,0-8.35-.96-11.17-2.88-2.82-1.93-5.11-4.52-6.85-7.77h0l3.24-2.97c1.59,3.01,3.7,5.22,6.31,6.62,2.62,1.42,5.45,2.12,8.47,2.12h0c1.96,0,3.81-.31,5.55-.94,1.74-.64,3.27-1.57,4.59-2.8,1.31-1.23,2.34-2.8,3.11-4.7.77-1.89,1.16-4.1,1.16-6.62h0v-9.31c-1.54,3.01-3.65,5.38-6.32,7.13-2.66,1.76-5.46,2.63-8.39,2.63Zm1.46-5.15h0c1.54,0,3.06-.33,4.56-1,1.49-.66,2.84-1.55,4.04-2.65,1.2-1.12,2.21-2.37,3.03-3.76.82-1.38,1.36-2.79,1.62-4.23h0v-14.54c-.57-1.68-1.34-3.25-2.31-4.7-.97-1.44-2.08-2.67-3.31-3.69-1.24-1.03-2.57-1.84-3.98-2.44-1.41-.6-2.84-.9-4.27-.9h0c-2.26,0-4.27.56-6.05,1.67-1.77,1.12-3.27,2.58-4.51,4.38-1.23,1.81-2.17,3.85-2.81,6.13-.64,2.28-.96,4.6-.96,6.96h0c0,2.52.39,4.93,1.16,7.22.77,2.28,1.84,4.28,3.19,6,1.37,1.72,2.95,3.07,4.75,4.06,1.8.99,3.75,1.49,5.84,1.49Z"></path>
      <path class="e" d="m404.81,172.6c0,2.36-3.41,4.27-7.63,4.27H8.13c-4.21,0-7.63-1.91-7.63-4.27h0c0-2.36,3.42-4.27,7.62-4.27h389.06c4.22,0,7.63,1.91,7.63,4.27h0Z"></path>
      <path class="e" d="m457.39,97.64c-1.97,1.3-4.04,1.62-4.64.72l-54.83-83.14c-.59-.9.52-2.68,2.49-3.98h0c1.97-1.3,4.04-1.62,4.64-.72l54.83,83.14c.6.9-.52,2.68-2.49,3.98h0Z"></path>
      <path class="e" d="m398.6,174.67c-1.92-1.37-2.98-3.17-2.38-4.02l56.14-78.76c.61-.85,2.66-.43,4.58.93h0c1.92,1.37,2.98,3.17,2.37,4.02l-56.14,78.76c-.61.85-2.66.44-4.58-.93h0Z"></path>
    </g>
  </g>
</svg>
