<svg xmlns:xlink="http://www.w3.org/1999/xlink" xmlns="http://www.w3.org/2000/svg" width="15" height="15" viewBox="0 0 15 15" fill="none">
  <g clip-path="url(#clip0_273_3170)">
    <path d="M8.70481 5.87335C8.44758 5.45094 7.99928 5.19873 7.50552 5.19873C7.10999 5.19873 6.74417 5.35873 6.47543 5.64929C6.23514 5.90908 6.10278 6.24726 6.10278 6.60147C6.10278 7.37497 6.73208 8.00423 7.50555 8.00423C8.27902 8.00423 8.90831 7.37494 8.90831 6.60147C8.90831 6.45747 8.88667 6.31561 8.84396 6.17988C8.81022 6.07273 8.7634 5.96961 8.70481 5.87335Z" fill="white"/>
    <path d="M7.86173 8.91394H7.14896C6.37382 8.91394 5.66158 9.30373 5.24376 9.95662C5.01035 10.3213 4.88696 10.7429 4.88696 11.1759V12.7384H10.1238V11.1759C10.1238 10.7429 10.0004 10.3213 9.76696 9.95662C9.34911 9.30373 8.63687 8.91394 7.86173 8.91394Z" fill="white"/>
    <path d="M4.79395 6.35966C5.88111 5.90903 6.39712 4.66241 5.94649 3.57525C5.49586 2.48809 4.24923 1.97208 3.16208 2.42271C2.07492 2.87334 1.55891 4.11996 2.00954 5.20712C2.46017 6.29428 3.70679 6.81029 4.79395 6.35966Z" fill="white"/>
    <path d="M4.00471 11.1759C4.00471 10.574 4.17621 9.98788 4.50068 9.48097C4.85465 8.92788 5.36074 8.511 5.94582 8.26941C5.57544 7.92285 5.3205 7.45482 5.2445 6.92955C4.91 7.21929 4.51006 7.40461 3.97603 7.40461C3.29765 7.40461 2.671 7.17917 2.16685 6.79938C1.51785 7.07514 0.956647 7.54208 0.562206 8.15841C0.194412 8.73308 0 9.39747 0 10.0798V11.8164H4.00471V11.1759Z" fill="white"/>
    <path d="M12.5286 5.89882C13.3604 5.06698 13.3604 3.7183 12.5286 2.88646C11.6967 2.05462 10.348 2.05462 9.51619 2.88646C8.68435 3.7183 8.68435 5.06698 9.51619 5.89882C10.348 6.73066 11.6967 6.73066 12.5286 5.89882Z" fill="white"/>
    <path d="M14.4379 8.15844C14.0435 7.54211 13.4823 7.07517 12.8332 6.79938C12.3291 7.1792 11.7025 7.40464 11.0241 7.40464C10.4927 7.40464 10.0985 7.20494 9.7703 6.90094C9.69957 7.43782 9.44227 7.91661 9.06519 8.26944C9.65027 8.511 10.1564 8.92791 10.5103 9.481C10.8348 9.98797 11.0063 10.5741 11.0063 11.176V11.8164H15.0001V10.0798C15.0001 9.3975 14.8057 8.73311 14.4379 8.15844Z" fill="white"/>
  </g>
  <defs>
    <clipPath id="clip0_273_3170">
      <rect width="15" height="15" fill="white"/>
    </clipPath>
  </defs>
</svg>