<svg xmlns:xlink="http://www.w3.org/1999/xlink" xmlns="http://www.w3.org/2000/svg" width="35" height="38" viewBox="0 0 35 38" fill="none">
  <g clip-path="url(#clip0_273_3657)">
    <path fill-rule="evenodd" clip-rule="evenodd" d="M25.7397 36.6293L32.9334 28.6383C33.5434 27.9607 33.5434 26.8509 32.9334 26.1733L31.7473 24.8579C31.1373 24.1802 30.1401 24.1802 29.5301 24.8579L29.498 24.8914L22.3667 32.8132L22.3364 32.8489C21.7264 33.5265 21.7264 34.6342 22.3364 35.3118L23.5225 36.6293C23.6434 36.7637 23.7812 36.8728 23.9285 36.9545H25.3336C25.481 36.8728 25.6169 36.7637 25.7397 36.6293Z" fill="#233479"/>
    <path fill-rule="evenodd" clip-rule="evenodd" d="M22.3667 32.813L29.4981 24.8913L26.3781 21.4254C21.7057 18.4821 17.9229 25.229 18.9635 29.0326L22.3667 32.813Z" fill="#FFDCD5"/>
    <path fill-rule="evenodd" clip-rule="evenodd" d="M8.66882 36.9544H10.074C10.2213 36.8727 10.3573 36.7636 10.48 36.6293L11.6661 35.3118C12.2761 34.6342 12.2761 33.5264 11.6661 32.8488L11.634 32.8131L4.50259 24.8914L4.47233 24.8579C3.86234 24.1802 2.86326 24.1802 2.25326 24.8579L1.06912 26.1733C0.459056 26.8509 0.459056 27.9607 1.06912 28.6383L8.26089 36.6293C8.38365 36.7636 8.52147 36.8727 8.66882 36.9544Z" fill="#638CE0"/>
    <path fill-rule="evenodd" clip-rule="evenodd" d="M20.1194 28.376L24.5235 23.4858L26.3782 21.4256L26.9618 20.7774C27.6057 20.0598 27.6057 18.8892 26.9618 18.1738C26.3178 17.4563 25.262 17.4563 24.618 18.1738L25.2054 17.5192C25.8512 16.8039 25.8512 15.6311 25.2054 14.9157C24.5613 14.1982 23.5056 14.1982 22.8616 14.9157L23.4489 14.2612C24.0949 13.5458 24.0949 12.3731 23.4489 11.6577C22.8049 10.9422 21.7492 10.9422 21.1052 11.6577L21.6944 11.0053C22.3384 10.2878 22.3384 9.11709 21.6944 8.3996C21.3035 7.9674 20.7634 7.79544 20.2553 7.88772C19.9229 7.9465 19.6037 8.11638 19.3488 8.3996L17.0013 11.0094L17.0768 11.0933L17.09 11.1081C17.734 11.8234 17.734 12.9961 17.09 13.7116C16.446 14.4291 15.3903 14.4291 14.7462 13.7116C15.3903 14.4291 15.3903 15.5996 14.7462 16.3171C14.1003 17.0326 13.0465 17.0326 12.4006 16.3171C13.0465 17.0326 13.0465 18.2053 12.4006 18.9207C11.7566 19.6361 10.7027 19.6361 10.0568 18.9207C10.7027 19.6361 10.7027 20.8089 10.0568 21.5242C9.41282 22.2417 8.35711 22.2417 7.71305 21.5242L7.62428 21.4256L4.50244 24.8914L11.6338 32.8132L14.614 29.5026C15.4582 28.5313 17.4355 29.381 18.9634 29.0327C19.3979 28.9341 19.7945 28.7369 20.1194 28.376Z" fill="#FFD0C7"/>
    <path fill-rule="evenodd" clip-rule="evenodd" d="M14.7462 13.7116C15.3903 14.429 16.446 14.429 17.09 13.7116C17.734 12.9961 17.734 11.8234 17.09 11.1081L17.0768 11.0933C16.0815 11.0136 14.1778 9.09403 14.0645 7.7471C13.4185 7.02961 12.3647 7.02961 11.7189 7.7471C11.0748 8.46252 11.0748 9.63526 11.7189 10.3506L12.3081 11.0052L14.7462 13.7116Z" fill="#FFDCD5"/>
    <path fill-rule="evenodd" clip-rule="evenodd" d="M12.4007 16.317C13.0466 17.0325 14.1005 17.0325 14.7463 16.317C15.3904 15.5996 15.3904 14.429 14.7463 13.7115L12.3082 11.0052C11.6623 10.2877 10.6084 10.2877 9.96442 11.0052C9.3185 11.7205 9.3185 12.8912 9.96442 13.6087L10.5518 14.2612L12.4007 16.317Z" fill="#FFDCD5"/>
    <path fill-rule="evenodd" clip-rule="evenodd" d="M10.0569 18.9207C10.7029 19.636 11.7567 19.636 12.4007 18.9207C13.0466 18.2052 13.0466 17.0325 12.4007 16.3171L10.5518 14.2611C9.9078 13.5458 8.85208 13.5458 8.20802 14.2611C7.56217 14.9786 7.56217 16.1493 8.20802 16.8668L9.38464 18.1737L10.0569 18.9207Z" fill="#FFDCD5"/>
    <path fill-rule="evenodd" clip-rule="evenodd" d="M7.71313 21.5243C8.35718 22.2418 9.4129 22.2418 10.0569 21.5243C10.7028 20.8089 10.7028 19.6361 10.0569 18.9208L9.38458 18.1739C8.73866 17.4564 7.6848 17.4564 7.03895 18.1739C6.39489 18.8893 6.39489 20.0599 7.03895 20.7774L7.62442 21.4256L7.71313 21.5243Z" fill="#FFDCD5"/>
    <path fill-rule="evenodd" clip-rule="evenodd" d="M17.0013 11.0094L19.3488 8.39959C19.6037 8.11637 19.9229 7.94648 20.2553 7.88771L15.7208 6.93317C14.8256 6.74431 13.9776 6.73809 14.0645 7.74717C14.1778 9.09403 16.0815 11.0136 17.0768 11.0934L17.0013 11.0094Z" fill="#FFDCD5"/>
    <path d="M17.0013 4.82232C17.3719 4.82232 17.6724 4.48811 17.6724 4.07585V0.746474C17.6724 0.334212 17.3719 0 17.0013 0C16.6306 0 16.3301 0.334212 16.3301 0.746474V4.07585C16.3301 4.48811 16.6306 4.82232 17.0013 4.82232Z" fill="#638CE0"/>
    <path d="M33.4072 25.6448L32.2215 24.3299C31.7997 23.8613 31.2375 23.6033 30.6385 23.6033C30.2555 23.6033 29.8879 23.7092 29.562 23.9078L27.3277 21.4258L27.4365 21.3049C28.343 20.2948 28.3426 18.6534 27.4365 17.6467C27.1126 17.2858 26.7086 17.0452 26.2681 16.944C26.3288 16.7112 26.3607 16.4673 26.3607 16.2178C26.3607 15.5244 26.1185 14.8742 25.6801 14.3886C25.3562 14.0278 24.9522 13.7872 24.5118 13.6859C24.5724 13.4531 24.6043 13.2093 24.6043 12.9597C24.6043 12.2662 24.3621 11.6161 23.923 11.1298C23.5914 10.7614 23.1837 10.5282 22.7557 10.429C22.9847 9.55086 22.789 8.5629 22.1679 7.8709C21.6509 7.29832 20.9493 7.05223 20.2732 7.13199L15.8456 6.19992C15.1704 6.05745 14.3271 5.96325 13.7949 6.50322C13.7613 6.53732 13.727 6.57653 13.6933 6.62018C12.8679 6.2856 11.9054 6.48484 11.2444 7.21908C10.8059 7.70613 10.5644 8.35602 10.5644 9.04906C10.5644 9.2987 10.5962 9.54248 10.6568 9.77537C10.2168 9.87654 9.81327 10.1168 9.49051 10.4765C9.05119 10.9631 8.80893 11.6122 8.80847 12.3045C8.80827 12.5547 8.84019 12.7993 8.9011 13.0328C8.46091 13.1337 8.05712 13.3736 7.73336 13.7332C7.29403 14.2213 7.05211 14.8716 7.05211 15.5642C7.05211 16.0949 7.19453 16.6002 7.45845 17.0272C7.12522 17.1528 6.81999 17.3619 6.56441 17.6458C5.65737 18.6534 5.65704 20.2949 6.56501 21.3065L6.67344 21.4265L4.43884 23.9073C3.60838 23.4724 2.58518 23.6353 1.89988 24.3966L0.713467 25.7124C0.291472 26.1811 0.0591487 26.8064 0.059082 27.473C0.059082 28.1396 0.291472 28.765 0.713467 29.2338L2.19411 30.8785C2.45636 31.1699 2.88135 31.1696 3.14327 30.8779C3.40525 30.5863 3.40498 30.1136 3.14273 29.8223L1.66209 28.1776C1.49401 27.9909 1.40144 27.7406 1.40144 27.473C1.40144 27.2055 1.49401 26.9554 1.66169 26.7691L2.84816 25.4532C3.1446 25.1238 3.59832 25.0749 3.94287 25.304C3.96713 25.3445 3.99519 25.3831 4.02731 25.4188C4.08476 25.483 4.1504 25.5321 4.22018 25.5681L11.0241 33.1242C11.0565 33.2025 11.1008 33.2763 11.1588 33.3408C11.2151 33.4036 11.2795 33.4521 11.3477 33.4878C11.4916 33.6687 11.5711 33.8999 11.5711 34.1464C11.5711 34.414 11.4785 34.6641 11.3104 34.8508L10.1252 36.1675C9.77495 36.5553 9.20527 36.5552 8.85612 36.1687L7.37541 34.5218C7.11329 34.2303 6.68837 34.2303 6.42625 34.5217C6.16414 34.8133 6.16407 35.2859 6.42619 35.5774L7.9079 37.2255C8.34409 37.7084 8.91683 37.9499 9.48978 37.9499C10.0629 37.9499 10.6363 37.7081 11.073 37.2246L12.259 35.9071C12.681 35.4383 12.9134 34.813 12.9134 34.1463C12.9134 33.6705 12.7944 33.2162 12.5732 32.8244L15.0881 30.0307C15.0907 30.0277 15.0935 30.0247 15.0961 30.0217C15.3841 29.6906 16.186 29.7526 16.9616 29.8125C17.5126 29.855 18.1269 29.9024 18.7271 29.8255L21.4812 32.8848C21.3028 33.2466 21.2075 33.655 21.2075 34.0803C21.2075 34.7463 21.4399 35.3712 21.8619 35.8401L23.048 37.1576C23.4697 37.6261 24.0319 37.8842 24.6309 37.8842C25.2298 37.8842 25.7919 37.6261 26.2137 37.1576L33.4074 29.1666C33.8294 28.6978 34.0618 28.0725 34.0618 27.4059C34.062 26.7393 33.8296 26.114 33.4072 25.6448ZM15.5957 7.66677L18.5072 8.27968L16.7645 10.2171C16.4949 10.073 16.1255 9.80428 15.7201 9.37304C15.1653 8.78274 14.7684 8.1012 14.7323 7.67611C14.7323 7.67589 14.7323 7.67567 14.7323 7.67544C14.7323 7.67537 14.7323 7.6753 14.7323 7.67522C14.7297 7.64468 14.729 7.6203 14.7293 7.60169C14.817 7.57798 15.0502 7.55166 15.5957 7.66677ZM12.193 8.27538C12.533 7.89759 13.0612 7.854 13.4454 8.14337C13.6631 9.15868 14.4419 10.0789 14.7922 10.4517C15.0519 10.728 15.885 11.5565 16.7259 11.7842C16.8397 11.9656 16.9016 12.1818 16.9016 12.4099C16.9016 12.7038 16.8 12.9786 16.6148 13.1843C16.4301 13.3901 16.1826 13.5034 15.9179 13.5034C15.6531 13.5034 15.4057 13.3901 15.2202 13.1834L15.2201 13.1833L15.2198 13.1829L12.1929 9.82258C12.0083 9.61764 11.9067 9.34287 11.9067 9.04906C11.9068 8.75517 12.0084 8.4804 12.193 8.27538ZM10.4391 11.5328C10.6238 11.3271 10.871 11.2138 11.1353 11.2138C11.3999 11.2138 11.6479 11.3273 11.8338 11.5338L14.2711 14.2392C14.6549 14.6667 14.6549 15.3624 14.2725 15.7884C14.0868 15.9941 13.8385 16.1074 13.5733 16.1074C13.3081 16.1074 13.0598 15.9941 12.8749 15.7893L12.8749 15.7893L11.0258 13.7332C11.0229 13.73 11.0198 13.7271 11.0169 13.7238L10.4384 13.0807C10.2528 12.8745 10.1506 12.5992 10.1508 12.3056C10.1511 12.0129 10.2529 11.739 10.4391 11.5328ZM8.68198 14.7895C8.86678 14.5843 9.1145 14.4712 9.37961 14.4712C9.64253 14.4712 9.88811 14.5826 10.0721 14.7843L11.9268 16.8462C12.1118 17.051 12.2137 17.3255 12.2137 17.619C12.2137 17.9125 12.1118 18.1869 11.9261 18.3926C11.7414 18.5978 11.4939 18.7108 11.2293 18.7108C10.9642 18.7108 10.716 18.5975 10.531 18.3926L9.85859 17.6457C9.85845 17.6455 9.85826 17.6453 9.85812 17.6452L8.68204 16.3387C8.49664 16.1327 8.39454 15.8576 8.39454 15.5641C8.39454 15.2706 8.49664 14.9954 8.68198 14.7895ZM7.51303 18.7021C7.69863 18.4959 7.94668 18.3824 8.21146 18.3824C8.47611 18.3824 8.7241 18.4959 8.9097 18.7019L9.58301 19.4499C9.76795 19.6547 9.86985 19.9292 9.86985 20.2227C9.86985 20.5163 9.76795 20.7907 9.58161 20.9972C9.39694 21.2028 9.14949 21.3162 8.88478 21.3162C8.62 21.3162 8.37254 21.2029 8.18654 20.9957L8.10223 20.9023C8.1011 20.901 8.10023 20.8997 8.09917 20.8985C8.0979 20.8972 8.09657 20.896 8.0953 20.8946L7.51369 20.2503C7.12989 19.8225 7.12955 19.128 7.51303 18.7021ZM21.1908 27.1858C20.9288 26.8941 20.5038 26.8939 20.2416 27.1852L19.6445 27.8484C19.0771 28.4795 18.049 28.4 17.0546 28.3233C15.9749 28.2398 14.8584 28.1537 14.1359 28.9787L11.6637 31.7248L5.48156 24.8592L7.66938 22.4304C8.03099 22.6769 8.44825 22.809 8.88484 22.809C9.5085 22.809 10.0934 22.5401 10.5303 22.0534C10.9701 21.5663 11.2123 20.9161 11.2123 20.2227C11.2123 20.2162 11.2119 20.2098 11.2119 20.2034C11.2177 20.2035 11.2235 20.2038 11.2293 20.2038C11.8522 20.2038 12.4366 19.9357 12.8741 19.4498C13.3139 18.9627 13.5561 18.3125 13.5561 17.6191C13.5561 17.6126 13.5557 17.6063 13.5557 17.5998C13.5616 17.5998 13.5674 17.6003 13.5734 17.6003C14.196 17.6003 14.7808 17.3325 15.2212 16.8447C15.6783 16.3354 15.9045 15.6649 15.9001 14.9958C15.9061 14.9958 15.9121 14.9962 15.9181 14.9962C16.5419 14.9962 17.1267 14.7273 17.5642 14.2398C18.0026 13.7528 18.2442 13.1029 18.2442 12.4099C18.2442 11.9253 18.1257 11.4619 17.9047 11.0605L19.8223 8.92868C19.9652 8.77044 20.1414 8.67111 20.3261 8.63012C20.3461 8.62775 20.3658 8.62419 20.3853 8.6199C20.6816 8.57446 20.9928 8.67608 21.2194 8.92713C21.6032 9.35473 21.6032 10.0504 21.2208 10.4765L20.6368 11.1233C20.6348 11.1255 20.6328 11.1274 20.6308 11.1296L19.9583 11.8765C19.6959 12.1678 19.6957 12.6404 19.9577 12.9321C20.2197 13.2239 20.6446 13.2241 20.9068 12.9328L21.4932 12.2816C21.4933 12.2814 21.4934 12.2813 21.4936 12.2811L21.5822 12.1829C21.9671 11.7588 22.5906 11.7597 22.9751 12.1867C23.1601 12.3915 23.262 12.666 23.262 12.9595C23.262 13.253 23.1601 13.5275 22.9736 13.734L22.3863 14.3885C22.3862 14.3886 22.3861 14.3887 22.3861 14.3888L21.7135 15.1338C21.4508 15.4247 21.45 15.8974 21.7116 16.1894C21.9731 16.4815 22.3981 16.4824 22.6607 16.1916L23.3363 15.4432C23.521 15.2374 23.7685 15.1242 24.0332 15.1242C24.298 15.1242 24.5455 15.2374 24.7315 15.4447C24.9165 15.6496 25.0183 15.9241 25.0183 16.2175C25.0183 16.511 24.9165 16.7854 24.7304 16.9915L23.5595 18.2943C23.2974 18.5859 23.2975 19.0585 23.5596 19.35C23.6907 19.4957 23.8624 19.5685 24.0341 19.5685C24.2059 19.5685 24.3777 19.4955 24.5088 19.3497L25.0826 18.7113C25.0859 18.7078 25.0894 18.7047 25.0927 18.7011C25.2774 18.4953 25.5248 18.3821 25.7895 18.3821C26.0543 18.3821 26.3018 18.4953 26.4871 18.7018C26.8705 19.1278 26.8702 19.8223 26.4872 20.2491L25.9037 20.8973C25.9035 20.8975 25.9032 20.8978 25.903 20.898C25.9028 20.8982 25.9026 20.8985 25.9024 20.8987L24.9763 21.9274C24.7141 22.2188 24.7138 22.6914 24.9757 22.9832C25.1068 23.1291 25.2788 23.2021 25.4507 23.2021C25.6223 23.2021 25.7939 23.1293 25.925 22.9838L26.3779 22.4806L28.549 24.8924L22.3674 31.7592L20.1525 29.2988C20.3069 29.1884 20.4547 29.0585 20.5934 28.9042L21.1902 28.2413C21.4525 27.9502 21.4528 27.4775 21.1908 27.1858ZM32.4589 28.1103L25.2652 36.1013C25.097 36.2882 24.8717 36.3911 24.631 36.3911C24.3903 36.3911 24.165 36.2882 23.9967 36.1012L22.8106 34.7837C22.6425 34.597 22.5499 34.3473 22.5499 34.0803C22.5499 33.8135 22.6425 33.5637 22.8106 33.377L30.0043 25.386C30.1726 25.199 30.3979 25.0961 30.6386 25.0961C30.8793 25.0961 31.1046 25.199 31.2733 25.3865L32.4589 26.7014C32.627 26.8882 32.7196 27.1382 32.7196 27.4058C32.7196 27.6735 32.627 27.9236 32.4589 28.1103Z" fill="black"/>
    <path d="M8.08907 4.19297C8.22009 4.3384 8.39164 4.41104 8.56318 4.41104C8.73512 4.41104 8.90713 4.33796 9.03822 4.19186C9.30007 3.90005 9.29967 3.42745 9.03729 3.13623L6.59156 0.421545C6.32925 0.130249 5.90426 0.130694 5.64241 0.422583C5.38056 0.714397 5.38096 1.18699 5.64334 1.47822L8.08907 4.19297Z" fill="#638CE0"/>
    <path d="M25.4395 4.41125C25.6111 4.41125 25.7828 4.33847 25.9138 4.19297L28.3576 1.47821C28.6199 1.18691 28.6202 0.714243 28.3582 0.422576C28.0963 0.130836 27.6713 0.130613 27.409 0.421983L24.9652 3.13674C24.7029 3.42804 24.7026 3.90071 24.9646 4.19238C25.0957 4.33825 25.2676 4.41125 25.4395 4.41125Z" fill="#638CE0"/>
    <path d="M4.18644 32.1096C3.92659 32.4036 3.93019 32.8763 4.19457 33.1653L4.1965 33.1673C4.32693 33.31 4.49627 33.381 4.66555 33.381C4.83929 33.381 5.01304 33.3062 5.14466 33.1573C5.40451 32.8633 5.39991 32.3896 5.13559 32.1006C4.87128 31.8116 4.44636 31.8157 4.18644 32.1096Z" fill="black"/>
    <path d="M22.8325 26.1104C22.9346 26.1104 23.0382 26.0846 23.1355 26.0301C23.4664 25.8444 23.5994 25.3955 23.4325 25.0274C23.2655 24.6594 22.8619 24.5114 22.531 24.6971L22.5273 24.6992C22.1963 24.8848 22.0652 25.3327 22.2321 25.7008C22.3499 25.9608 22.5869 26.1104 22.8325 26.1104Z" fill="black"/>
  </g>
  <defs>
    <clipPath id="clip0_273_3657">
      <rect width="34.1221" height="37.95" fill="white" transform="translate(-0.000244141)"/>
    </clipPath>
  </defs>
</svg>