<svg xmlns:xlink="http://www.w3.org/1999/xlink" xmlns="http://www.w3.org/2000/svg" width="43" height="43" viewBox="0 0 43 43" fill="none">
  <circle cx="21.5" cy="21.5" r="21.5" fill="#233479"/>
  <path d="M33.7091 14.8759C33.4066 13.7513 32.52 12.8649 31.3956 12.562C29.3414 12 21.1247 12 21.1247 12C21.1247 12 12.9083 12 10.8541 12.5407C9.75134 12.8432 8.84306 13.7515 8.54057 14.8759C8 16.9299 8 21.1896 8 21.1896C8 21.1896 8 25.4707 8.54057 27.5033C8.84338 28.6277 9.72971 29.5142 10.8543 29.817C12.9299 30.3792 21.125 30.3792 21.125 30.3792C21.125 30.3792 29.3414 30.3792 31.3956 29.8384C32.5201 29.5358 33.4066 28.6493 33.7094 27.5249C34.2498 25.4707 34.2498 21.2112 34.2498 21.2112C34.2498 21.2112 34.2715 16.9299 33.7091 14.8759ZM18.5087 25.1248V17.2543L25.3413 21.1896L18.5087 25.1248Z" fill="#4C71BC"/>
</svg>